# Blender v2.91.0 OBJ File: 'LifeIsPain_Environment.blend'
# www.blender.org
o Cube_Cube.017
v 11.250605 0.411739 22.589197
v 11.250605 0.553224 22.589197
v 12.233629 0.411739 21.500914
v 12.233629 0.553224 21.500914
v 11.732464 0.411739 23.068182
v 11.732464 0.553224 23.068182
v 12.715488 0.411739 21.979898
v 12.715488 0.553224 21.979898
v 12.108727 0.004011 21.696369
v 12.108727 0.465212 21.696369
v 12.230906 0.004011 21.568579
v 12.230906 0.465212 21.568579
v 12.236517 0.004011 21.818548
v 12.236517 0.465212 21.818548
v 12.358696 0.004011 21.690758
v 12.358696 0.465212 21.690758
v 12.405051 0.003754 22.004309
v 12.405051 0.464955 22.004309
v 12.527231 0.003754 21.876518
v 12.527231 0.464955 21.876518
v 12.532842 0.003754 22.126490
v 12.532842 0.464955 22.126490
v 12.655022 0.003754 21.998699
v 12.655022 0.464955 21.998699
v 11.315625 0.004011 22.569546
v 11.315625 0.465212 22.569546
v 11.437805 0.004011 22.441755
v 11.437805 0.465212 22.441755
v 11.443416 0.004011 22.691725
v 11.443416 0.465212 22.691725
v 11.565596 0.004011 22.563934
v 11.565596 0.465212 22.563934
v 11.611951 0.003754 22.877485
v 11.611951 0.464955 22.877485
v 11.734130 0.003754 22.749695
v 11.734130 0.464955 22.749695
v 11.739741 0.003754 22.999664
v 11.739741 0.464955 22.999664
v 11.861920 0.003754 22.871876
v 11.861920 0.464955 22.871876
v 11.983609 0.576286 22.713795
v 11.983609 0.942299 22.713795
v 11.675054 0.576286 22.427702
v 11.675054 1.114192 22.427702
v 12.441978 0.576286 22.219437
v 12.441978 0.942299 22.219437
v 12.133421 0.576286 21.933344
v 12.133421 1.114192 21.933344
vt 0.018421 0.882924
vt 0.024630 0.882924
vt 0.024630 0.947287
vt 0.018421 0.947287
vt 0.030676 0.909311
vt 0.038470 0.909311
vt 0.038470 0.946739
vt 0.030676 0.946739
vt 0.200444 0.879098
vt 0.207826 0.879098
vt 0.207826 0.955615
vt 0.200444 0.955615
vt 0.079653 0.918113
vt 0.079653 0.947155
vt 0.068216 0.947155
vt 0.068216 0.918113
vt 0.008558 0.881380
vt 0.040354 0.881340
vt 0.040354 0.946821
vt 0.008558 0.946861
vt 0.079822 0.886879
vt 0.079822 0.915553
vt 0.068168 0.915553
vt 0.068168 0.886879
vt 0.056515 0.915553
vt 0.056515 0.886879
vt 0.044861 0.915553
vt 0.044861 0.886879
vt 0.056779 0.947155
vt 0.056779 0.918113
vt 0.045342 0.947155
vt 0.045342 0.918113
vt 0.079771 0.886917
vt 0.079771 0.915543
vt 0.068249 0.915543
vt 0.068249 0.886917
vt 0.079758 0.918453
vt 0.079758 0.946853
vt 0.068089 0.946853
vt 0.068089 0.918453
vt 0.056420 0.946853
vt 0.056420 0.918453
vt 0.044752 0.946853
vt 0.044752 0.918453
vt 0.056727 0.915543
vt 0.056727 0.886917
vt 0.045205 0.915543
vt 0.045205 0.886917
vt 0.054262 0.953601
vt 0.054262 0.993606
vt 0.005186 0.993606
vt 0.005186 0.953601
vt 0.060585 0.992792
vt 0.060585 0.974133
vt 0.075181 0.980096
vt 0.075181 0.992792
vt 0.155673 0.974805
vt 0.155673 0.993670
vt 0.120927 0.993670
vt 0.120927 0.974805
vt 0.081828 0.973860
vt 0.110542 0.973860
vt 0.110542 0.993220
vt 0.081828 0.993220
vn -0.7421 0.0000 -0.6703
vn 0.7050 0.0000 -0.7092
vn 0.7421 0.0000 0.6703
vn -0.7228 0.0000 -0.6911
vn 0.0000 1.0000 0.0000
vn 0.6911 0.0000 -0.7228
vn 0.7228 0.0000 0.6911
vn -0.7333 0.0000 -0.6799
vn 0.6799 0.0000 -0.7333
vn 0.7333 0.0000 0.6799
vn 0.2773 0.9257 0.2571
s off
f 1/1/1 2/2/1 4/3/1 3/4/1
f 3/5/2 4/6/2 8/7/2 7/8/2
f 7/9/3 8/10/3 6/11/3 5/12/3
f 17/13/4 18/14/4 20/15/4 19/16/4
f 8/17/5 4/18/5 2/19/5 6/20/5
f 9/21/4 10/22/4 12/23/4 11/24/4
f 11/24/6 12/23/6 16/25/6 15/26/6
f 15/26/7 16/25/7 14/27/7 13/28/7
f 19/16/6 20/15/6 24/29/6 23/30/6
f 23/30/7 24/29/7 22/31/7 21/32/7
f 33/33/4 34/34/4 36/35/4 35/36/4
f 25/37/4 26/38/4 28/39/4 27/40/4
f 27/40/6 28/39/6 32/41/6 31/42/6
f 31/42/7 32/41/7 30/43/7 29/44/7
f 35/36/6 36/35/6 40/45/6 39/46/6
f 39/46/7 40/45/7 38/47/7 37/48/7
f 43/49/8 44/50/8 48/51/8 47/52/8
f 47/53/9 48/54/9 46/55/9 45/56/9
f 45/57/10 46/58/10 42/59/10 41/60/10
f 48/61/11 44/62/11 42/63/11 46/64/11
l 43 41
