# Blender v2.91.0 OBJ File: ''
# www.blender.org
o Wall_GardenBack_Cube.012
v 0.000001 -0.679726 0.002179
v 2.337001 -0.679726 -3.209605
v 2.337001 0.676808 -3.209605
v 0.000001 0.679726 0.002179
v -2.337001 -0.679727 3.207424
v -2.337001 0.682644 3.207424
vt 0.633585 0.830686
vt 0.745634 0.830686
vt 0.745634 0.907220
vt 0.633585 0.907384
vt 0.521686 0.830686
vt 0.521686 0.907549
vn 0.8083 0.0000 0.5888
vn 0.8086 0.0000 0.5884
vn 0.8080 0.0000 0.5891
s 1
f 1/1/1 2/2/2 3/3/2 4/4/1
f 5/5/3 1/1/1 4/4/1 6/6/3
