# Blender v2.91.0 OBJ File: 'LifeIsPain_Environment.blend'
# www.blender.org
o Cube.003_Cube.020
v 10.273018 0.006101 18.434776
v 10.273018 0.832221 18.434776
v 10.710084 0.006101 18.471466
v 10.710084 0.832221 18.471466
v 10.240380 0.006101 18.823574
v 10.240380 0.832221 18.823574
v 10.677446 0.006101 18.860264
v 10.677446 0.832221 18.860264
v 10.499290 0.532914 18.368883
v 10.871721 0.532914 18.600546
v 10.293211 0.532914 18.700182
v 10.665642 0.532914 18.931847
vt 0.097920 0.847339
vt 0.097920 0.803004
vt 0.120805 0.803004
vt 0.120805 0.847339
vt 0.127250 0.847646
vt 0.127250 0.803136
vt 0.146075 0.803136
vt 0.146075 0.847646
vt 0.743992 0.745967
vt 0.372303 0.745967
vt 0.372303 0.548629
vt 0.743992 0.548629
vt 0.372303 0.373086
vt 0.743992 0.373086
vt 0.125469 0.775065
vt 0.125469 0.756275
vt 0.147901 0.756275
vt 0.147901 0.775065
vt 0.120707 0.756235
vt 0.120707 0.775332
vt 0.097897 0.775332
vt 0.097897 0.756235
vn 0.0837 0.0000 -0.9965
vn 0.9965 0.0000 0.0837
vn -0.0837 0.0000 0.9965
vn -0.9965 0.0000 -0.0837
vn 0.0000 1.0000 -0.0000
s off
f 1/1/1 2/2/1 4/3/1 3/4/1
f 3/5/2 4/6/2 8/7/2 7/8/2
f 7/9/3 8/10/3 6/11/3 5/12/3
f 5/12/4 6/11/4 2/13/4 1/14/4
f 8/15/5 4/16/5 2/17/5 6/18/5
f 12/19/5 10/20/5 9/21/5 11/22/5
