# Blender v2.91.0 OBJ File: 'LifeIsPain_Environment.blend'
# www.blender.org
o Pipe_Cube.003
v -0.540439 -1.006222 0.247108
v 0.775255 2.664239 0.578140
v 0.904861 2.606346 0.405276
v 0.999740 2.448182 0.278730
v 1.034468 2.232127 0.232410
v 0.999740 2.016071 0.278730
v 0.904861 1.857907 0.405276
v 0.775255 1.800015 0.578140
v 0.645648 1.857907 0.751005
v 0.550770 2.016071 0.877550
v 0.516042 2.232127 0.923870
v 0.550770 2.448182 0.877550
v 0.645648 2.606346 0.751005
v -0.235305 -1.006083 0.207249
v 0.009021 -1.005980 0.020164
v 0.127071 -1.005943 -0.264021
v 0.087212 -1.005980 -0.569155
v -0.099874 -1.006083 -0.813478
v -0.384057 -1.006222 -0.931532
v -0.689192 -1.006362 -0.891672
v -0.934516 2.823816 -0.704718
v -0.933517 -1.006462 -0.704588
v -1.051567 -1.006500 -0.420401
v -1.011708 -1.006462 -0.115267
v -0.824623 -1.006361 0.129058
v -0.689882 1.640334 -0.891764
v 0.126380 1.640752 -0.264111
v -0.384747 1.640474 -0.931622
v 0.010769 1.639179 0.013431
v -0.100564 1.640612 -0.813574
v -0.235995 1.640612 0.207157
v -0.541129 1.640474 0.247016
v 0.086522 1.640715 -0.569246
v -0.934208 1.640232 -0.704678
v -1.052257 1.640195 -0.420492
v -1.012399 1.640232 -0.115358
v -0.825313 1.640334 0.128966
v -0.690169 2.740948 -0.891802
v -0.100717 2.226395 -0.813595
v 0.126360 1.717212 -0.264112
v -0.384977 2.522639 -0.931652
v 0.086446 1.931586 -0.569256
v -1.012632 2.532660 -0.115391
v -0.825469 2.237600 0.128945
v -0.541207 1.941109 0.247005
v -0.236016 1.722635 0.207154
v -1.052546 2.747230 -0.420532
v 0.013208 2.826610 0.006790
v 0.191516 2.746964 -0.231030
v 0.322046 2.529367 -0.405127
v 0.369824 2.232126 -0.468851
v 0.322046 1.934885 -0.405127
v 0.191516 1.717289 -0.231030
v -0.165100 1.717289 0.244612
v -0.295631 1.934885 0.418709
v -0.343408 2.232126 0.482433
v -0.295631 2.529367 0.418709
v -0.165100 2.746964 0.244612
v 0.953563 2.746964 0.340320
v 0.775255 2.826610 0.578140
v 1.084093 2.529368 0.166223
v 1.131871 2.232127 0.102498
v 1.084093 1.934885 0.166223
v 0.953563 1.717289 0.340320
v 0.775255 1.637643 0.578140
v 0.596947 1.717289 0.815962
v 0.466416 1.934885 0.990058
v 0.418639 2.232127 1.053782
v 0.466416 2.529368 0.990058
v 0.596947 2.746964 0.815962
v -0.044240 2.606345 -0.306318
v -0.173846 2.664237 -0.133455
v 0.050639 2.448181 -0.432865
v 0.085367 2.232126 -0.479185
v 0.050639 2.016070 -0.432865
v -0.044240 1.857906 -0.306318
v -0.173846 1.800014 -0.133455
v -0.303452 1.857906 0.039410
v -0.398331 2.016070 0.165955
v -0.433059 2.232126 0.212275
v -0.398331 2.448181 0.165955
v -0.303452 2.606345 0.039410
vt 0.811603 0.515937
vt 0.811597 0.558651
vt 0.819152 0.558651
vt 0.819148 0.515980
vt 0.819525 0.560048
vt 0.819525 0.458698
vt 0.827368 0.458699
vt 0.827368 0.560048
vt 0.827014 0.558639
vt 0.826989 0.516006
vt 0.811682 0.560048
vt 0.811682 0.458699
vt 0.834886 0.558609
vt 0.834886 0.516012
vt 0.803824 0.560020
vt 0.803832 0.458536
vt 0.811680 0.458536
vt 0.843025 0.558553
vt 0.843025 0.516005
vt 0.795977 0.560022
vt 0.795984 0.458538
vt 0.850863 0.558451
vt 0.850863 0.516000
vt 0.788129 0.560023
vt 0.788137 0.458539
vt 0.858636 0.558309
vt 0.858580 0.515767
vt 0.780281 0.560023
vt 0.780289 0.458539
vt 0.763249 0.516059
vt 0.763191 0.558920
vt 0.772294 0.558840
vt 0.772294 0.515814
vt 0.772434 0.560023
vt 0.772442 0.458539
vt 0.780218 0.558775
vt 0.780218 0.515723
vt 0.764766 0.559943
vt 0.764594 0.458536
vt 0.787909 0.558729
vt 0.787850 0.515681
vt 0.835211 0.560051
vt 0.835211 0.458701
vt 0.843054 0.458704
vt 0.843054 0.560054
vt 0.850896 0.560057
vt 0.850896 0.458707
vt 0.858495 0.458710
vt 0.858648 0.559981
vt 0.795990 0.558697
vt 0.795949 0.515668
vt 0.890223 0.520500
vt 0.885499 0.520500
vt 0.885499 0.570600
vt 0.890223 0.570600
vt 0.803585 0.558672
vt 0.803551 0.515668
vt 0.811668 0.558650
vt 0.811634 0.515667
vt 0.772433 0.587779
vt 0.764766 0.571662
vt 0.772434 0.571741
vt 0.788127 0.615565
vt 0.780280 0.601970
vt 0.780281 0.571742
vt 0.788129 0.571742
vt 0.803821 0.643136
vt 0.795974 0.629477
vt 0.795977 0.571740
vt 0.803824 0.571739
vt 0.811669 0.654350
vt 0.811672 0.571739
vt 0.835211 0.614825
vt 0.827368 0.628945
vt 0.827368 0.571767
vt 0.835211 0.571769
vt 0.858648 0.571700
vt 0.850896 0.587030
vt 0.850896 0.571776
vt 0.819525 0.642344
vt 0.819525 0.571766
vt 0.843054 0.601246
vt 0.843054 0.571772
vt 0.811682 0.653936
vt 0.811682 0.571767
vt 0.843025 0.570301
vt 0.850863 0.570306
vt 0.850863 0.585886
vt 0.843025 0.600307
vt 0.763249 0.570247
vt 0.772294 0.570492
vt 0.772294 0.587130
vt 0.780218 0.570583
vt 0.780218 0.600512
vt 0.787850 0.570625
vt 0.787954 0.614032
vt 0.795949 0.570638
vt 0.795993 0.627892
vt 0.803551 0.570638
vt 0.803583 0.643559
vt 0.811634 0.570639
vt 0.811668 0.655347
vt 0.811603 0.570369
vt 0.819148 0.570326
vt 0.819333 0.644193
vt 0.811797 0.654844
vt 0.826989 0.570300
vt 0.827142 0.628152
vt 0.834886 0.570294
vt 0.834886 0.614469
vt 0.858580 0.570539
vt 0.889427 0.648987
vt 0.896543 0.640770
vt 0.898232 0.644149
vt 0.890045 0.653602
vt 0.900651 0.626539
vt 0.902959 0.627775
vt 0.900651 0.610106
vt 0.902959 0.608869
vt 0.896543 0.595874
vt 0.898232 0.592496
vt 0.889427 0.587658
vt 0.890045 0.583043
vt 0.881211 0.587658
vt 0.880592 0.583043
vt 0.874095 0.595874
vt 0.872406 0.592496
vt 0.869986 0.610106
vt 0.867679 0.608869
vt 0.869987 0.626539
vt 0.867679 0.627775
vt 0.874095 0.640770
vt 0.872406 0.644148
vt 0.881211 0.648987
vt 0.880592 0.653602
vt 0.897114 0.624908
vt 0.893923 0.635962
vt 0.888396 0.642345
vt 0.882014 0.642345
vt 0.876486 0.635962
vt 0.873295 0.624908
vt 0.873295 0.612144
vt 0.876486 0.601090
vt 0.882014 0.594707
vt 0.888396 0.594707
vt 0.893923 0.601090
vt 0.897114 0.612144
vt 0.923287 0.520500
vt 0.918564 0.520500
vt 0.918564 0.570600
vt 0.923287 0.570600
vt 0.876052 0.520500
vt 0.871329 0.520500
vt 0.871329 0.570600
vt 0.876052 0.570600
vt 0.909117 0.520500
vt 0.904393 0.520500
vt 0.904393 0.570600
vt 0.909117 0.570600
vt 0.894946 0.520500
vt 0.894946 0.570600
vt 0.880776 0.520500
vt 0.880776 0.570600
vt 0.913840 0.520500
vt 0.913840 0.570600
vt 0.899670 0.520500
vt 0.899670 0.570600
vt 0.866605 0.520500
vt 0.866606 0.570600
vn 0.1553 0.9659 -0.2071
vn -0.9916 -0.0003 0.1295
vn 0.4242 0.7071 -0.5658
vn -0.9235 -0.0003 -0.3836
vn 0.5794 0.2588 -0.7728
vn -0.6080 -0.0002 -0.7940
vn 0.5794 -0.2588 -0.7728
vn -0.1295 -0.0001 -0.9916
vn 0.4242 -0.7071 -0.5658
vn 0.3836 0.0001 -0.9235
vn 0.1509 -0.9673 -0.2041
vn 0.7940 0.0002 -0.6080
vn -0.1554 -0.9658 0.2075
vn 0.9916 0.0003 -0.1295
vn -0.4242 -0.7071 0.5658
vn 0.9233 0.0003 0.3841
vn -0.5794 -0.2588 0.7728
vn -0.3836 -0.0001 0.9235
vn 0.6128 0.0009 0.7902
vn -0.5794 0.2588 0.7728
vn -0.4242 0.7071 0.5657
vn 0.1295 0.0001 0.9916
vn -0.4242 0.7071 0.5658
vn -0.7940 -0.0002 0.6080
vn -0.1553 0.9659 0.2071
vn 0.9231 0.0003 0.3845
vn 0.6175 0.0002 0.7866
vn 0.3860 -0.7203 -0.5763
vn -0.1748 -0.9655 0.1932
vn -0.4121 -0.6987 0.5849
vn -0.5697 -0.2469 0.7839
vn -0.5718 0.2686 0.7752
vn -0.4192 0.7122 0.5630
vn -0.1532 0.9672 0.2025
vn 0.1558 0.9644 -0.2139
vn 0.4222 0.7029 -0.5724
vn 0.5742 0.2499 -0.7796
vn 0.5648 -0.2723 -0.7790
vn 0.1150 -0.9677 -0.2242
vn 0.8001 0.0000 0.5999
vn 0.1553 -0.9659 -0.2071
vn -0.1553 -0.9659 0.2071
s off
f 48/1/1 60/2/1 59/3/1 49/4/1
f 35/5/2 23/6/2 24/7/2 36/8/2
f 49/4/3 59/3/3 61/9/3 50/10/3
f 34/11/4 22/12/4 23/6/4 35/5/4
f 50/10/5 61/9/5 62/13/5 51/14/5
f 26/15/6 20/16/6 22/17/6 34/11/6
f 51/14/7 62/13/7 63/18/7 52/19/7
f 28/20/8 19/21/8 20/16/8 26/15/8
f 52/19/9 63/18/9 64/22/9 53/23/9
f 30/24/10 18/25/10 19/21/10 28/20/10
f 53/23/11 64/22/11 65/26/11 29/27/11
f 33/28/12 17/29/12 18/25/12 30/24/12
f 29/30/13 65/31/13 66/32/13 54/33/13
f 27/34/14 16/35/14 17/29/14 33/28/14
f 54/33/15 66/32/15 67/36/15 55/37/15
f 29/38/16 15/39/16 16/35/16 27/34/16
f 55/37/17 67/36/17 68/40/17 56/41/17
f 37/42/18 25/43/18 1/44/18 32/45/18
f 31/46/19 14/47/19 15/48/19 29/49/19
f 56/41/20 68/40/20 69/50/20 57/51/20
f 7/52/21 6/53/21 75/54/21 76/55/21
f 32/45/22 1/44/22 14/47/22 31/46/22
f 57/51/23 69/50/23 70/56/23 58/57/23
f 36/8/24 24/7/24 25/43/24 37/42/24
f 58/57/25 70/56/25 60/58/25 48/59/25
f 40/60/26 29/61/26 27/62/26
f 39/63/12 42/64/12 33/65/12 30/66/12
f 42/64/14 40/60/14 27/62/14 33/65/14
f 38/67/8 41/68/8 28/69/8 26/70/8
f 41/68/10 39/63/10 30/66/10 28/69/10
f 21/71/6 38/67/6 26/70/6 34/72/6
f 44/73/24 43/74/24 36/75/24 37/76/24
f 29/77/27 46/78/27 31/79/27
f 43/74/2 47/80/2 35/81/2 36/75/2
f 45/82/18 44/73/18 37/76/18 32/83/18
f 47/80/4 21/84/4 34/85/4 35/81/4
f 46/78/22 45/82/22 32/83/22 31/79/22
f 52/86/28 53/87/28 40/88/28 42/89/28
f 29/90/29 54/91/29 46/92/29
f 54/91/30 55/93/30 45/94/30 46/92/30
f 55/93/31 56/95/31 44/96/31 45/94/31
f 56/95/32 57/97/32 43/98/32 44/96/32
f 57/97/33 58/99/33 47/100/33 43/98/33
f 58/99/34 48/101/34 21/102/34 47/100/34
f 48/103/35 49/104/35 38/105/35 21/106/35
f 49/104/36 50/107/36 41/108/36 38/105/36
f 50/107/37 51/109/37 39/110/37 41/108/37
f 51/109/38 52/86/38 42/89/38 39/110/38
f 53/87/39 29/111/39 40/88/39
f 2/112/40 3/113/40 59/114/40 60/115/40
f 3/113/40 4/116/40 61/117/40 59/114/40
f 4/116/40 5/118/40 62/119/40 61/117/40
f 5/118/40 6/120/40 63/121/40 62/119/40
f 6/120/40 7/122/40 64/123/40 63/121/40
f 7/122/40 8/124/40 65/125/40 64/123/40
f 8/124/40 9/126/40 66/127/40 65/125/40
f 9/126/40 10/128/40 67/129/40 66/127/40
f 10/128/40 11/130/40 68/131/40 67/129/40
f 11/130/40 12/132/40 69/133/40 68/131/40
f 12/132/40 13/134/40 70/135/40 69/133/40
f 13/134/40 2/112/40 60/115/40 70/135/40
f 71/136/40 72/137/40 82/138/40 81/139/40 80/140/40 79/141/40 78/142/40 77/143/40 76/144/40 75/145/40 74/146/40 73/147/40
f 2/148/41 13/149/41 82/150/41 72/151/41
f 4/152/15 3/153/15 71/154/15 73/155/15
f 11/156/5 10/157/5 79/158/5 80/159/5
f 8/160/25 7/52/25 76/55/25 77/161/25
f 5/162/17 4/152/17 73/155/17 74/163/17
f 12/164/7 11/156/7 80/159/7 81/165/7
f 9/166/1 8/160/1 77/161/1 78/167/1
f 6/53/20 5/162/20 74/163/20 75/54/20
f 13/149/9 12/164/9 81/165/9 82/150/9
f 3/153/42 2/168/42 72/169/42 71/154/42
f 10/157/3 9/166/3 78/167/3 79/158/3
