# Blender v2.91.0 OBJ File: 'LifeIsPain_Environment.blend'
# www.blender.org
o Wall_Garden_Cube.012
v -0.581569 0.002186 -3.328429
v 6.078764 0.002186 1.380902
v -5.255571 0.002186 3.088600
v -5.255571 1.364557 3.088600
v -0.581569 1.358719 -3.328429
v 6.078764 1.352882 1.380902
v -2.918570 0.002186 -0.116645
v 2.685334 0.002186 -1.018497
v 2.668556 1.355825 -1.030360
v -2.918570 1.361638 -0.116645
vt 0.633585 0.830686
vt 0.745634 0.830686
vt 0.745634 0.907220
vt 0.633585 0.907384
vt 0.745766 0.912698
vt 0.745766 0.990357
vt 0.633974 0.990192
vt 0.633377 0.912698
vt 0.521686 0.830686
vt 0.521686 0.907549
vt 0.521911 0.990024
vt 0.521910 0.912698
vn 0.8086 0.0000 0.5884
vn 0.5773 -0.0000 -0.8165
vn 0.8080 0.0000 0.5891
s off
f 7/1/1 1/2/1 5/3/1 10/4/1
f 1/5/2 5/6/2 9/7/2 8/8/2
f 3/9/3 7/1/3 10/4/3 4/10/3
f 8/8/2 9/7/2 6/11/2 2/12/2
