# Blender v2.91.0 OBJ File: 'LifeIsPain_Environment.blend'
# www.blender.org
o Dumpster_Cube.001
v -1.326879 -0.117464 -0.303264
v -1.047751 0.800575 -0.303264
v 0.116979 -0.556465 -1.192419
v 0.396106 0.361574 -1.192419
v -0.696410 -0.309156 0.815168
v -0.417283 0.608883 0.815168
v 0.747447 -0.748157 -0.073987
v 1.026575 0.169881 -0.073987
v 0.856474 0.221600 -0.119946
v 0.352134 0.374943 -1.014630
v -0.877650 0.748856 -0.257304
v -0.373311 0.595513 0.637379
v 0.219544 -0.061140 -1.014630
v 0.764251 -0.081718 -0.119946
v -0.489721 0.212645 0.637379
v -0.956593 0.489219 -0.257304
v -1.045962 0.790338 -0.295302
v 0.397897 0.351337 -1.184457
v -0.311178 1.242573 0.674597
v 1.132680 0.803572 -0.214559
v 0.398625 0.414563 -1.214490
v -1.045233 0.853564 -0.325335
v -0.310449 1.305799 0.644564
v 1.133410 0.866798 -0.244591
v 0.765289 0.577454 -0.699508
v -0.678570 1.016456 0.189647
v -0.676410 1.203765 0.100675
v 0.767448 0.764764 -0.788481
v -0.494875 1.129514 0.432122
v -0.493064 1.286538 0.357534
v 0.948984 0.690513 -0.457034
v 0.950794 0.847537 -0.531621
v 0.581594 0.464396 -0.941982
v 0.583404 0.621420 -1.016569
v -0.862265 0.903397 -0.052827
v -0.860454 1.060421 -0.127414
v -0.452037 0.610517 0.590544
v -0.230015 1.162597 0.406367
v -0.394011 0.574228 0.551615
v -0.171989 1.126309 0.367438
v -0.408114 0.610649 0.655889
v -0.186092 1.162729 0.471712
v -0.350089 0.574360 0.616960
v -0.128067 1.126441 0.432783
v -0.297138 0.713860 0.483934
v -0.250711 0.799923 0.489980
v -0.196483 0.680897 0.180239
v -0.150057 0.766960 0.186285
v 0.936253 0.014463 0.968640
v 0.982679 0.100525 0.974686
v 1.036909 -0.018501 0.664945
v 1.083335 0.067562 0.670991
vt 0.987097 0.557289
vt 0.987097 0.606649
vt 0.932853 0.606649
vt 0.932853 0.557289
vt 0.933135 0.502475
vt 0.933135 0.552298
vt 0.971695 0.552298
vt 0.971695 0.502475
vt 0.987045 0.557398
vt 0.987045 0.606934
vt 0.932880 0.606934
vt 0.932880 0.557398
vt 0.971532 0.502369
vt 0.971532 0.552330
vt 0.932968 0.552331
vt 0.932968 0.502369
vt 0.930648 0.777122
vt 0.883942 0.777122
vt 0.883942 0.760131
vt 0.930648 0.748583
vt 0.933269 0.686569
vt 0.933269 0.612516
vt 0.935856 0.618118
vt 0.935856 0.680967
vt 0.986974 0.612516
vt 0.984387 0.618118
vt 0.986974 0.686569
vt 0.984387 0.680967
vt 0.982589 0.619634
vt 0.983084 0.679103
vt 0.937196 0.679037
vt 0.936977 0.619634
vt 0.930786 0.722453
vt 0.899615 0.722453
vt 0.899615 0.695089
vt 0.930786 0.703420
vt 0.930594 0.722138
vt 0.899784 0.722138
vt 0.899784 0.698393
vt 0.930594 0.706035
vt 0.930534 0.776968
vt 0.884100 0.776968
vt 0.884100 0.757233
vt 0.930534 0.752057
vt 0.984567 0.721972
vt 0.936762 0.721972
vt 0.936762 0.703372
vt 0.984568 0.703372
vt 0.995591 0.757446
vt 0.995591 0.775471
vt 0.993647 0.775471
vt 0.990763 0.757446
vt 0.995497 0.757311
vt 0.995497 0.775080
vt 0.993581 0.775081
vt 0.990738 0.757311
vt 0.985656 0.696893
vt 0.935735 0.696893
vt 0.935735 0.692903
vt 0.985656 0.692903
vt 0.936554 0.693000
vt 0.984226 0.693001
vt 0.984226 0.696811
vt 0.936554 0.696811
vt 0.995497 0.721772
vt 0.995497 0.739542
vt 0.989820 0.739542
vt 0.990738 0.721772
vt 0.995591 0.721395
vt 0.995591 0.739421
vt 0.989832 0.739421
vt 0.990763 0.721395
vt 0.984567 0.757590
vt 0.936762 0.757590
vt 0.936762 0.739781
vt 0.984567 0.739781
vt 0.995497 0.704003
vt 0.993581 0.704003
vt 0.984567 0.776189
vt 0.936762 0.776189
vt 0.995591 0.703370
vt 0.993647 0.703370
vt 0.375985 0.248553
vt 0.375985 0.350650
vt 0.369533 0.350655
vt 0.369533 0.248558
vt 0.363087 0.350074
vt 0.363087 0.247976
vt 0.356634 0.350069
vt 0.356634 0.247971
vt 0.350188 0.350650
vt 0.350188 0.248553
vt 0.506709 0.697125
vt 0.508569 0.697125
vt 0.508569 0.709338
vt 0.506709 0.709338
vt 0.514646 0.728506
vt 0.516864 0.728506
vt 0.516864 0.796335
vt 0.514646 0.796335
vt 0.505909 0.605222
vt 0.508196 0.605222
vt 0.508196 0.620240
vt 0.505909 0.620240
vt 0.506625 0.725750
vt 0.508788 0.725750
vt 0.508788 0.791898
vt 0.506625 0.791898
vt 0.513568 0.671745
vt 0.513568 0.608149
vt 0.520394 0.608149
vt 0.520394 0.671745
vn -0.4857 0.1477 -0.8616
vn 0.8243 -0.2506 -0.5076
vn 0.4857 -0.1477 0.8616
vn -0.8243 0.2506 0.5076
vn 0.2909 0.9568 0.0000
vn 0.3164 0.9484 -0.0214
vn 0.1824 0.9664 -0.1809
vn 0.5660 0.3484 0.7472
vn -0.5660 -0.3484 -0.7472
vn -0.0478 0.8626 -0.5036
vn 0.0685 0.9342 -0.3500
vn -0.1626 0.7541 -0.6363
vn -0.5745 -0.0417 -0.8175
vn 0.7368 -0.4612 -0.4943
vn 0.5745 0.0417 0.8175
vn -0.7368 0.4612 0.4943
vn -0.8231 0.4667 -0.3235
vn 0.3130 -0.1025 -0.9442
vn 0.8231 -0.4667 0.3235
vn -0.3130 0.1025 0.9442
vn 0.4739 0.8784 0.0617
s off
f 1/1/1 2/2/1 4/3/1 3/4/1
f 3/5/2 4/6/2 8/7/2 7/8/2
f 7/9/3 8/10/3 6/11/3 5/12/3
f 5/13/4 6/14/4 2/15/4 1/16/4
f 10/17/3 11/18/3 16/19/3 13/20/3
f 8/21/5 4/22/5 10/23/5 9/24/5
f 4/22/5 2/25/5 11/26/5 10/23/5
f 2/25/5 6/27/5 12/28/5 11/26/5
f 6/27/5 8/21/5 9/24/5 12/28/5
f 14/29/6 13/30/6 16/31/6 15/32/6
f 9/33/4 10/34/4 13/35/4 14/36/4
f 11/37/2 12/38/2 15/39/2 16/40/2
f 12/41/1 9/42/1 14/43/1 15/44/1
f 32/45/7 30/46/7 23/47/7 24/48/7
f 29/49/4 19/50/4 23/51/4 30/52/4
f 33/53/2 18/54/2 21/55/2 34/56/2
f 19/57/8 20/58/8 24/59/8 23/60/8
f 18/61/9 17/62/9 22/63/9 21/64/9
f 31/65/2 25/66/2 28/67/2 32/68/2
f 35/69/4 26/70/4 27/71/4 36/72/4
f 34/73/10 36/74/10 27/75/10 28/76/10
f 20/77/2 31/65/2 32/68/2 24/78/2
f 26/70/4 29/49/4 30/52/4 27/71/4
f 28/76/11 27/75/11 30/46/11 32/45/11
f 21/79/12 22/80/12 36/74/12 34/73/12
f 17/81/4 35/69/4 36/72/4 22/82/4
f 25/66/2 33/53/2 34/56/2 28/67/2
f 37/83/13 38/84/13 40/85/13 39/86/13
f 39/86/14 40/85/14 44/87/14 43/88/14
f 43/88/15 44/87/15 42/89/15 41/90/15
f 41/90/16 42/89/16 38/91/16 37/92/16
f 45/93/17 46/94/17 48/95/17 47/96/17
f 47/97/18 48/98/18 52/99/18 51/100/18
f 51/101/19 52/102/19 50/103/19 49/104/19
f 49/105/20 50/106/20 46/107/20 45/108/20
f 52/109/21 48/110/21 46/111/21 50/112/21
