# Blender v2.91.0 OBJ File: 'LifeIsPain_Environment.blend'
# www.blender.org
o Cylinder
v -5.688575 0.420101 -9.702305
v -5.688575 0.586280 -9.702305
v -5.188575 0.420101 -9.568330
v -5.188575 0.586280 -9.568330
v -4.822549 0.420101 -9.202305
v -4.822549 0.586280 -9.202305
v -4.688575 0.420101 -8.702305
v -4.688575 0.586280 -8.702305
v -4.822549 0.420101 -8.202305
v -4.822549 0.586280 -8.202305
v -5.188575 0.420101 -7.836279
v -5.188575 0.586280 -7.836279
v -5.688575 0.420101 -7.702305
v -5.688575 0.586280 -7.702305
v -6.188575 0.586280 -7.836279
v -6.554600 0.586280 -8.202305
v -6.688575 0.420101 -8.702305
v -6.688575 0.586280 -8.702305
v -6.554601 0.420101 -9.202305
v -6.554601 0.586280 -9.202305
v -6.188575 0.420101 -9.568330
v -6.188575 0.586280 -9.568330
v -4.941123 0.028919 -8.713128
v -4.941123 0.521003 -8.713128
v -4.833518 0.028919 -8.834402
v -4.833518 0.521003 -8.834402
v -4.819849 0.028919 -8.605522
v -4.819849 0.521003 -8.605522
v -4.712243 0.028919 -8.726797
v -4.712243 0.521003 -8.726797
v -6.204392 0.028919 -9.390386
v -6.204392 0.521003 -9.390386
v -6.096787 0.028919 -9.511661
v -6.096787 0.521003 -9.511661
v -6.083118 0.028919 -9.282781
v -6.083118 0.521003 -9.282781
v -5.975513 0.028919 -9.404055
v -5.975513 0.521003 -9.404055
v -6.223294 0.028919 -7.982221
v -6.223294 0.521003 -7.982221
v -6.115688 0.028919 -8.103496
v -6.115688 0.521003 -8.103496
v -6.102019 0.028919 -7.874616
v -6.102019 0.521003 -7.874616
v -5.994414 0.028919 -7.995890
v -5.994414 0.521003 -7.995890
vt 0.252008 0.961340
vt 0.252008 0.954051
vt 0.274714 0.954051
vt 0.274714 0.961340
vt 0.297421 0.954051
vt 0.297421 0.961340
vt 0.320128 0.954051
vt 0.320128 0.961340
vt 0.342834 0.954051
vt 0.342834 0.961340
vt 0.365541 0.954051
vt 0.365541 0.961340
vt 0.388248 0.954051
vt 0.388248 0.961340
vt 0.183888 0.961340
vt 0.183888 0.954051
vt 0.206594 0.954051
vt 0.206594 0.961340
vt 0.106467 0.950811
vt 0.092511 0.931543
vt 0.090059 0.907879
vt 0.099767 0.886159
vt 0.119035 0.872203
vt 0.142699 0.869751
vt 0.164419 0.879459
vt 0.178375 0.898727
vt 0.180827 0.922391
vt 0.171119 0.944111
vt 0.151851 0.958067
vt 0.128187 0.960519
vt 0.229301 0.954051
vt 0.229301 0.961340
vt 0.079708 0.918186
vt 0.079708 0.947426
vt 0.068190 0.947426
vt 0.068190 0.918186
vt 0.056671 0.947426
vt 0.056671 0.918186
vt 0.045153 0.947426
vt 0.045153 0.918186
vt 0.079501 0.886759
vt 0.079501 0.916049
vt 0.068228 0.916049
vt 0.068228 0.886759
vt 0.056955 0.886759
vt 0.056955 0.916049
vt 0.045683 0.916049
vt 0.045683 0.886759
vt 0.045327 0.947035
vt 0.045327 0.918174
vt 0.056816 0.918174
vt 0.056816 0.947035
vt 0.068305 0.947035
vt 0.068305 0.918174
vt 0.079794 0.918174
vt 0.079794 0.947035
vn 0.2588 0.0000 -0.9659
vn 0.7071 0.0000 -0.7071
vn 0.9659 0.0000 -0.2588
vn 0.9659 0.0000 0.2588
vn 0.7071 0.0000 0.7071
vn 0.2588 0.0000 0.9659
vn -0.9659 0.0000 -0.2588
vn 0.0000 1.0000 0.0000
vn -0.7071 0.0000 -0.7071
vn -0.2588 0.0000 -0.9659
vn -0.7480 0.0000 -0.6637
vn 0.6637 0.0000 -0.7480
vn 0.7480 0.0000 0.6637
s off
f 1/1/1 2/2/1 4/3/1 3/4/1
f 3/4/2 4/3/2 6/5/2 5/6/2
f 5/6/3 6/5/3 8/7/3 7/8/3
f 7/8/4 8/7/4 10/9/4 9/10/4
f 9/10/5 10/9/5 12/11/5 11/12/5
f 11/12/6 12/11/6 14/13/6 13/14/6
f 17/15/7 18/16/7 20/17/7 19/18/7
f 4/19/8 2/20/8 22/21/8 20/22/8 18/23/8 16/24/8 15/25/8 14/26/8 12/27/8 10/28/8 8/29/8 6/30/8
f 19/18/9 20/17/9 22/31/9 21/32/9
f 21/32/10 22/31/10 2/2/10 1/1/10
f 23/33/11 24/34/11 26/35/11 25/36/11
f 25/36/12 26/35/12 30/37/12 29/38/12
f 29/38/13 30/37/13 28/39/13 27/40/13
f 31/41/11 32/42/11 34/43/11 33/44/11
f 37/45/13 38/46/13 36/47/13 35/48/13
f 33/44/12 34/43/12 38/46/12 37/45/12
f 39/49/11 40/50/11 42/51/11 41/52/11
f 45/53/13 46/54/13 44/55/13 43/56/13
f 41/52/12 42/51/12 46/54/12 45/53/12
