# Blender v2.91.0 OBJ File: 'LifeIsPain_Environment.blend'
# www.blender.org
o Wall_StoreBack_Cube.008
v 4.011361 -0.007539 1.650510
v 4.011361 -0.007539 0.721835
v 3.010126 -0.007539 0.721835
v -2.772942 -0.007539 0.721835
v -2.772942 -0.007539 -0.747048
v -2.772942 -0.007539 -6.317216
v 4.011361 2.717203 1.650510
v 4.011361 2.717203 0.721835
v 3.010126 2.717203 0.721835
v -2.772942 2.717203 0.721835
v -2.772942 2.717203 -0.747048
v -2.772942 2.717203 -6.317216
v 1.595349 -0.007539 0.721835
v 1.595349 2.717203 0.721835
v -1.244223 0.714778 0.721835
v -2.160472 -0.007539 0.721835
v -2.160472 2.717203 0.721835
v -2.160472 0.714778 0.721835
v -1.244223 2.717203 0.721835
v 1.595349 1.853827 0.721835
v -1.244223 1.853827 0.721835
vt 0.658753 0.011736
vt 0.707046 0.011736
vt 0.707046 0.169046
vt 0.658753 0.169046
vt 0.659052 0.504646
vt 0.691365 0.504646
vt 0.691365 0.662301
vt 0.659052 0.662301
vt 0.659233 0.832746
vt 0.727380 0.832746
vt 0.727380 0.989430
vt 0.659233 0.989430
vt 0.956443 0.011736
vt 0.985985 0.011736
vt 0.985985 0.169046
vt 0.956443 0.169046
vt 0.956443 0.053438
vt 0.985799 0.832746
vt 0.985799 0.989429
vt 0.775286 0.011736
vt 0.775286 0.119200
vt 0.775286 0.169046
vt 0.912249 0.053438
vt 0.912249 0.169046
vt 0.912249 0.119200
vn 0.0000 0.0000 -1.0000
vn 1.0000 0.0000 0.0000
s off
f 2/1/1 3/2/1 9/3/1 8/4/1
f 1/5/2 2/6/2 8/7/2 7/8/2
f 4/9/2 5/10/2 11/11/2 10/12/2
f 16/13/1 4/14/1 10/15/1 17/16/1 18/17/1
f 5/10/2 6/18/2 12/19/2 11/11/2
f 3/2/1 13/20/1 20/21/1 14/22/1 9/3/1
f 15/23/1 18/17/1 17/16/1 19/24/1 21/25/1
f 20/21/1 21/25/1 19/24/1 14/22/1
