# Blender v2.91.0 OBJ File: 'LifeIsPain_Environment.blend'
# www.blender.org
o DumpsterFixed_Cube.006
v -1.132890 -0.453590 -0.335190
v -1.132890 0.505945 -0.335190
v 0.393116 -0.453590 -1.195044
v 0.393116 0.505945 -1.195044
v -0.495639 -0.453590 0.795756
v -0.495639 0.505945 0.795756
v 1.030367 -0.453590 -0.064098
v 1.030367 0.505945 -0.064098
v 0.853498 0.505945 -0.113481
v 0.343733 0.505945 -1.018175
v -0.956021 0.505945 -0.285807
v -0.446256 0.505945 0.618887
v 0.343733 0.050150 -1.018175
v 0.853498 0.188917 -0.113481
v -0.446256 0.105771 0.618887
v -0.956021 0.234572 -0.285807
v -1.128353 0.496672 -0.327139
v 0.397653 0.496672 -1.186993
v -0.575733 1.143097 0.653612
v 0.950274 1.143097 -0.206243
v 0.380540 0.557376 -1.217362
v -1.145466 0.557376 -0.357508
v -0.592845 1.203800 0.623243
v 0.933162 1.203800 -0.236611
v 0.673963 0.819884 -0.696618
v -0.852043 0.819884 0.163236
v -0.902738 0.999722 0.073268
v 0.623269 0.999722 -0.786586
v -0.713888 0.981490 0.408424
v -0.756386 1.132250 0.333002
v 0.812118 0.981490 -0.451431
v 0.769620 1.132250 -0.526852
v 0.535808 0.658278 -0.941805
v 0.493310 0.809038 -1.017226
v -0.990198 0.658278 -0.081951
v -1.032696 0.809038 -0.157372
v -0.525023 0.497399 0.570522
v -0.469655 1.090190 0.387380
v -0.458211 0.479559 0.532876
v -0.402844 1.072350 0.349734
v -0.484307 0.510302 0.636667
v -0.428940 1.103093 0.453524
v -0.417496 0.492463 0.599020
v -0.362128 1.085253 0.415878
v 0.157815 0.601540 0.338989
v 0.188511 0.690990 0.364587
v 0.357648 0.605080 0.086990
v 0.388344 0.694530 0.112589
v 1.234007 -0.009546 1.183816
v 1.264703 0.079904 1.209414
v 1.433840 -0.006006 0.931818
v 1.464537 0.083444 0.957416
vt 0.986984 0.557239
vt 0.986984 0.607493
vt 0.933095 0.607493
vt 0.933095 0.557239
vt 0.971206 0.502818
vt 0.971206 0.551859
vt 0.933164 0.551859
vt 0.933164 0.502818
vt 0.987169 0.557511
vt 0.987169 0.606734
vt 0.933135 0.606734
vt 0.933135 0.557511
vt 0.971449 0.502459
vt 0.971449 0.552637
vt 0.933118 0.552637
vt 0.933118 0.502459
vt 0.930646 0.776980
vt 0.884115 0.776980
vt 0.884115 0.760052
vt 0.930646 0.748548
vt 0.986945 0.612530
vt 0.986945 0.687058
vt 0.983550 0.680391
vt 0.983550 0.619196
vt 0.932945 0.687058
vt 0.936340 0.680391
vt 0.932945 0.612530
vt 0.936340 0.619196
vt 0.982500 0.620859
vt 0.982991 0.678480
vt 0.937453 0.678416
vt 0.937236 0.620859
vt 0.930488 0.722100
vt 0.899885 0.722100
vt 0.899885 0.695235
vt 0.930488 0.703414
vt 0.930473 0.722280
vt 0.899664 0.722280
vt 0.899664 0.698535
vt 0.930473 0.706177
vt 0.930335 0.777186
vt 0.884077 0.777186
vt 0.884077 0.757526
vt 0.930335 0.752370
vt 0.936005 0.757199
vt 0.984434 0.757199
vt 0.984434 0.776041
vt 0.936005 0.776041
vt 0.995628 0.757885
vt 0.995628 0.776311
vt 0.993641 0.776311
vt 0.990693 0.757885
vt 0.990058 0.720554
vt 0.990058 0.701897
vt 0.991064 0.701897
vt 0.992557 0.720554
vt 0.985742 0.696517
vt 0.934774 0.696517
vt 0.934774 0.692443
vt 0.985742 0.692443
vt 0.934460 0.692787
vt 0.985847 0.692787
vt 0.985847 0.696894
vt 0.934460 0.696894
vt 0.990058 0.757867
vt 0.990058 0.739210
vt 0.993039 0.739210
vt 0.992557 0.757867
vt 0.995628 0.721033
vt 0.995628 0.739459
vt 0.989741 0.739459
vt 0.990693 0.721033
vt 0.936005 0.721117
vt 0.984434 0.721117
vt 0.984434 0.739158
vt 0.936005 0.739158
vt 0.990058 0.776524
vt 0.991064 0.776524
vt 0.936005 0.702274
vt 0.984434 0.702274
vt 0.995628 0.702607
vt 0.993641 0.702607
vt 0.571919 0.461803
vt 0.571919 0.563889
vt 0.559015 0.563894
vt 0.559015 0.461808
vt 0.546124 0.563313
vt 0.546124 0.461226
vt 0.533220 0.563308
vt 0.533220 0.461221
vt 0.520329 0.563889
vt 0.520329 0.461803
vt 0.505586 0.605257
vt 0.507979 0.605257
vt 0.507979 0.620968
vt 0.505586 0.620968
vt 0.506958 0.725188
vt 0.509113 0.725188
vt 0.509113 0.791112
vt 0.506958 0.791112
vt 0.506636 0.693712
vt 0.509033 0.693712
vt 0.509033 0.709455
vt 0.506636 0.709455
vt 0.516503 0.745438
vt 0.518584 0.745438
vt 0.518584 0.809103
vt 0.516503 0.809103
vt 0.513611 0.671749
vt 0.513611 0.608170
vt 0.520435 0.608170
vt 0.520435 0.671749
vn -0.4909 0.0000 -0.8712
vn 0.8712 0.0000 -0.4909
vn 0.4909 0.0000 0.8712
vn -0.8712 0.0000 0.4909
vn 0.0000 1.0000 0.0000
vn 0.0272 0.9994 -0.0208
vn -0.1031 0.9777 -0.1829
vn 0.4257 0.4980 0.7555
vn -0.4257 -0.4980 -0.7555
vn -0.2869 0.8114 -0.5092
vn -0.1994 0.9138 -0.3539
vn -0.3626 0.6742 -0.6435
vn -0.5216 -0.2070 -0.8277
vn 0.8485 -0.2269 -0.4780
vn 0.5216 0.2070 0.8277
vn -0.8485 0.2269 0.4780
vn -0.7182 0.4078 -0.5638
vn 0.6213 0.0110 -0.7835
vn 0.7182 -0.4078 0.5638
vn -0.6213 -0.0110 0.7835
vn 0.3133 0.9130 0.2613
s off
f 1/1/1 2/2/1 4/3/1 3/4/1
f 3/5/2 4/6/2 8/7/2 7/8/2
f 7/9/3 8/10/3 6/11/3 5/12/3
f 5/13/4 6/14/4 2/15/4 1/16/4
f 10/17/3 11/18/3 16/19/3 13/20/3
f 8/21/5 4/22/5 10/23/5 9/24/5
f 4/22/5 2/25/5 11/26/5 10/23/5
f 2/25/5 6/27/5 12/28/5 11/26/5
f 6/27/5 8/21/5 9/24/5 12/28/5
f 14/29/6 13/30/6 16/31/6 15/32/6
f 9/33/4 10/34/4 13/35/4 14/36/4
f 11/37/2 12/38/2 15/39/2 16/40/2
f 12/41/1 9/42/1 14/43/1 15/44/1
f 32/45/7 30/46/7 23/47/7 24/48/7
f 29/49/4 19/50/4 23/51/4 30/52/4
f 33/53/2 18/54/2 21/55/2 34/56/2
f 19/57/8 20/58/8 24/59/8 23/60/8
f 18/61/9 17/62/9 22/63/9 21/64/9
f 31/65/2 25/66/2 28/67/2 32/68/2
f 35/69/4 26/70/4 27/71/4 36/72/4
f 34/73/10 36/74/10 27/75/10 28/76/10
f 20/77/2 31/65/2 32/68/2 24/78/2
f 26/70/4 29/49/4 30/52/4 27/71/4
f 28/76/11 27/75/11 30/46/11 32/45/11
f 21/79/12 22/80/12 36/74/12 34/73/12
f 17/81/4 35/69/4 36/72/4 22/82/4
f 25/66/2 33/53/2 34/56/2 28/67/2
f 37/83/13 38/84/13 40/85/13 39/86/13
f 39/86/14 40/85/14 44/87/14 43/88/14
f 43/88/15 44/87/15 42/89/15 41/90/15
f 41/90/16 42/89/16 38/91/16 37/92/16
f 45/93/17 46/94/17 48/95/17 47/96/17
f 47/97/18 48/98/18 52/99/18 51/100/18
f 51/101/19 52/102/19 50/103/19 49/104/19
f 49/105/20 50/106/20 46/107/20 45/108/20
f 52/109/21 48/110/21 46/111/21 50/112/21
