# Blender v2.91.0 OBJ File: 'LifeIsPain_Environment.blend'
# www.blender.org
o Tire_Cube.004
v -0.195583 0.392081 -0.185780
v 0.012206 0.524512 -0.260859
v -0.128411 0.286336 -0.186394
v 0.079379 0.418767 -0.261475
v -0.054666 0.204299 -0.127005
v 0.153122 0.336731 -0.202085
v 0.005885 0.167954 -0.023531
v 0.213675 0.300386 -0.098608
v 0.037022 0.187038 0.096306
v 0.244812 0.319470 0.021229
v 0.030402 0.256439 0.200397
v 0.238191 0.388870 0.125319
v -0.012204 0.357559 0.260847
v 0.195585 0.489991 0.185766
v -0.079378 0.463304 0.261461
v 0.128412 0.595736 0.186382
v -0.153121 0.545340 0.202072
v 0.054668 0.677772 0.126991
v -0.213673 0.581686 0.098597
v -0.005884 0.714117 0.023516
v -0.244811 0.562601 -0.021240
v -0.037021 0.695033 -0.096321
v -0.238189 0.493201 -0.125330
v -0.030399 0.625633 -0.200409
v -0.267431 0.405606 -0.360769
v -0.250494 0.429635 -0.411720
v -0.118939 0.222541 -0.412920
v -0.147622 0.216999 -0.361864
v 0.060168 0.349430 -0.436943
v 0.022917 0.312951 -0.464176
v -0.108637 0.520045 -0.462975
v -0.059642 0.538038 -0.435848
v 0.025480 0.061880 -0.296614
v -0.016092 0.070679 -0.255939
v 0.191696 0.203110 -0.331020
v 0.167336 0.152290 -0.347872
v 0.144066 -0.009299 -0.093966
v 0.091908 0.005854 -0.071381
v 0.299698 0.138285 -0.146458
v 0.285923 0.081111 -0.145222
v 0.205046 0.028076 0.140726
v 0.147444 0.039892 0.142361
v 0.355234 0.172324 0.067284
v 0.346902 0.118486 0.089470
v 0.192079 0.163991 0.344578
v 0.135636 0.163675 0.328018
v 0.343425 0.296106 0.252939
v 0.333935 0.254401 0.293320
v 0.108639 0.362027 0.462961
v 0.059644 0.344033 0.435837
v 0.267432 0.476465 0.360754
v 0.250495 0.452437 0.411707
v -0.022914 0.569120 0.464165
v -0.060167 0.532641 0.436930
v 0.147623 0.665073 0.361853
v 0.118942 0.659530 0.412909
v -0.167334 0.729781 0.347858
v -0.191694 0.678960 0.331007
v 0.016094 0.811392 0.255924
v -0.025478 0.820191 0.296600
v -0.285922 0.800961 0.145208
v -0.299696 0.743786 0.146446
v -0.091906 0.876218 0.071367
v -0.144064 0.891371 0.093954
v -0.346900 0.763586 -0.089483
v -0.355233 0.709748 -0.067295
v -0.147443 0.842179 -0.142376
v -0.205044 0.853996 -0.140739
v -0.333933 0.627671 -0.293333
v -0.343424 0.585965 -0.252951
v -0.135634 0.718397 -0.328032
v -0.192078 0.718081 -0.344591
vt 0.811796 0.944610
vt 0.811796 0.934353
vt 0.818951 0.934353
vt 0.818951 0.944610
vt 0.958570 0.731084
vt 0.955181 0.727216
vt 0.956646 0.715869
vt 0.962683 0.722714
vt 0.960528 0.737801
vt 0.966154 0.734687
vt 0.960541 0.745549
vt 0.966168 0.748497
vt 0.958617 0.752290
vt 0.962824 0.760547
vt 0.955253 0.756213
vt 0.956833 0.767489
vt 0.951354 0.756243
vt 0.949882 0.767607
vt 0.947981 0.752370
vt 0.943874 0.760707
vt 0.946034 0.745655
vt 0.940414 0.748748
vt 0.946027 0.737908
vt 0.940410 0.734955
vt 0.992731 0.043710
vt 0.992730 0.075222
vt 0.960334 0.075222
vt 0.960334 0.043710
vt 0.947943 0.731169
vt 0.943796 0.722959
vt 0.951290 0.727259
vt 0.949734 0.715990
vt 0.992730 0.012198
vt 0.960334 0.012198
vt 0.826106 0.934353
vt 0.826106 0.944610
vt 0.959704 0.734137
vt 0.957484 0.726428
vt 0.962211 0.716935
vt 0.966153 0.730613
vt 0.959700 0.743023
vt 0.966113 0.746451
vt 0.957499 0.750723
vt 0.962236 0.760194
vt 0.953641 0.721988
vt 0.955397 0.709098
vt 0.840416 0.944610
vt 0.840416 0.934354
vt 0.847571 0.934354
vt 0.847571 0.944610
vt 0.949220 0.721993
vt 0.947528 0.709130
vt 0.854726 0.934354
vt 0.854726 0.944611
vt 0.945361 0.726410
vt 0.940635 0.716858
vt 0.861881 0.934354
vt 0.861881 0.944611
vt 0.943138 0.734138
vt 0.936666 0.730668
vt 0.776021 0.944611
vt 0.776020 0.934354
vt 0.783175 0.934354
vt 0.783176 0.944610
vt 0.943146 0.743074
vt 0.936619 0.746617
vt 0.790331 0.934354
vt 0.790331 0.944610
vt 0.945389 0.750796
vt 0.940644 0.760296
vt 0.797485 0.934353
vt 0.797486 0.944610
vt 0.949244 0.755205
vt 0.947525 0.768084
vt 0.804641 0.934353
vt 0.804641 0.944610
vt 0.953667 0.755160
vt 0.955404 0.767963
vt 0.833260 0.934353
vt 0.833261 0.944610
vt 0.992730 0.106733
vt 0.960334 0.106734
vt 0.992730 0.138245
vt 0.960334 0.138246
vt 0.992731 0.169757
vt 0.960334 0.169757
vt 0.992731 0.201269
vt 0.960334 0.201269
vt 0.992730 0.232781
vt 0.960334 0.232781
vt 0.992730 0.264292
vt 0.960335 0.264293
vt 0.992731 0.295804
vt 0.960335 0.295805
vt 0.992730 0.327316
vt 0.960335 0.327316
vt 0.992731 0.358828
vt 0.960335 0.358828
vt 0.992731 0.390339
vt 0.960335 0.390339
vt 0.949233 0.712391
vt 0.957133 0.712107
vt 0.968252 0.729443
vt 0.968252 0.747590
vt 0.964045 0.720031
vt 0.963720 0.713836
vt 0.967995 0.733738
vt 0.955943 0.704996
vt 0.967995 0.749484
vt 0.947003 0.704933
vt 0.964159 0.763163
vt 0.939117 0.713708
vt 0.957347 0.771241
vt 0.934504 0.729500
vt 0.949374 0.771298
vt 0.934506 0.747814
vt 0.942514 0.763373
vt 0.939133 0.763441
vt 0.938575 0.749692
vt 0.947004 0.772296
vt 0.938583 0.733952
vt 0.955988 0.772119
vt 0.942464 0.720277
vt 0.963743 0.763206
vn -0.4833 0.2901 -0.8260
vn -0.8067 -0.5141 0.2915
vn 0.5886 -0.6548 0.4740
vn 0.4833 -0.2901 0.8260
vn -0.2485 -0.1523 -0.9566
vn 0.8067 0.5141 -0.2915
vn 0.5362 -0.8441 -0.0049
vn 0.2485 0.1523 0.9566
vn -0.0529 0.5540 0.8309
vn -0.3401 0.8072 0.4825
vn -0.5362 0.8441 0.0049
vn -0.5886 0.6548 -0.4740
vn 0.0528 -0.5540 -0.8309
vn 0.3401 -0.8072 -0.4825
vn 0.0529 -0.5540 -0.8309
vn -0.2486 -0.1523 -0.9566
vn 0.2486 0.1523 0.9566
vn -0.7461 -0.4713 -0.4703
vn 0.3947 0.2558 -0.8825
vn -0.5330 -0.7553 -0.3814
vn 0.6078 -0.0282 -0.7936
vn -0.3299 -0.9343 -0.1351
vn 0.8109 -0.2072 -0.5473
vn -0.1913 -0.9604 0.2026
vn 0.9496 -0.2333 -0.2096
vn -0.1542 -0.8266 0.5413
vn 0.9866 -0.0995 0.1291
vn -0.2286 -0.5687 0.7902
vn 0.9122 0.1584 0.3779
vn -0.3946 -0.2558 0.8825
vn 0.7462 0.4713 0.4703
vn -0.6078 0.0282 0.7936
vn 0.5330 0.7553 0.3814
vn -0.8109 0.2072 0.5473
vn 0.3299 0.9343 0.1351
vn -0.9496 0.2333 0.2096
vn 0.1913 0.9604 -0.2026
vn -0.9866 0.0995 -0.1291
vn 0.1542 0.8266 -0.5413
vn -0.9122 -0.1584 -0.3779
vn 0.2286 0.5687 -0.7902
s off
f 69/1/1 72/2/1 31/3/1 26/4/1
f 5/5/2 3/6/2 28/7/2 34/8/2
f 7/9/2 5/5/2 34/8/2 38/10/2
f 9/11/2 7/9/2 38/10/2 42/12/2
f 11/13/2 9/11/2 42/12/2 46/14/2
f 13/15/2 11/13/2 46/14/2 50/16/2
f 15/17/2 13/15/2 50/16/2 54/18/2
f 17/19/2 15/17/2 54/18/2 58/20/2
f 19/21/2 17/19/2 58/20/2 62/22/2
f 21/23/2 19/21/2 62/22/2 66/24/2
f 24/25/3 22/26/3 21/27/3 23/28/3
f 23/29/2 21/23/2 66/24/2 70/30/2
f 1/31/2 23/29/2 70/30/2 25/32/2
f 2/33/4 24/25/4 23/28/4 1/34/4
f 26/4/5 31/3/5 30/35/5 27/36/5
f 4/37/6 6/38/6 35/39/6 29/40/6
f 2/41/6 4/37/6 29/40/6 32/42/6
f 24/43/6 2/41/6 32/42/6 71/44/6
f 6/38/6 8/45/6 39/46/6 35/39/6
f 37/47/7 40/48/7 44/49/7 41/50/7
f 8/45/6 10/51/6 43/52/6 39/46/6
f 41/50/3 44/49/3 48/53/3 45/54/3
f 10/51/6 12/55/6 47/56/6 43/52/6
f 45/54/4 48/53/4 52/57/4 49/58/4
f 12/55/6 14/59/6 51/60/6 47/56/6
f 49/61/8 52/62/8 56/63/8 53/64/8
f 14/59/6 16/65/6 55/66/6 51/60/6
f 53/64/9 56/63/9 60/67/9 57/68/9
f 16/65/6 18/69/6 59/70/6 55/66/6
f 57/68/10 60/67/10 64/71/10 61/72/10
f 18/69/6 20/73/6 63/74/6 59/70/6
f 61/72/11 64/71/11 68/75/11 65/76/11
f 20/73/6 22/77/6 67/78/6 63/74/6
f 65/76/12 68/75/12 72/2/12 69/1/12
f 22/77/6 24/43/6 71/44/6 67/78/6
f 27/36/13 30/35/13 36/79/13 33/80/13
f 33/80/14 36/79/14 40/48/14 37/47/14
f 22/26/7 20/81/7 19/82/7 21/27/7
f 20/81/14 18/83/14 17/84/14 19/82/14
f 18/83/15 16/85/15 15/86/15 17/84/15
f 16/85/16 14/87/16 13/88/16 15/86/16
f 14/87/1 12/89/1 11/90/1 13/88/1
f 12/89/12 10/91/12 9/92/12 11/90/12
f 10/91/11 8/93/11 7/94/11 9/92/11
f 8/93/10 6/95/10 5/96/10 7/94/10
f 6/95/9 4/97/9 3/98/9 5/96/9
f 4/97/17 2/99/17 1/100/17 3/98/17
f 26/101/18 27/102/18 28/7/18 25/32/18
f 30/103/19 31/104/19 32/42/19 29/40/19
f 27/102/20 33/105/20 34/8/20 28/7/20
f 36/106/21 30/103/21 29/40/21 35/39/21
f 33/105/22 37/107/22 38/10/22 34/8/22
f 40/108/23 36/106/23 35/39/23 39/46/23
f 37/107/24 41/109/24 42/12/24 38/10/24
f 44/110/25 40/108/25 39/46/25 43/52/25
f 41/109/26 45/111/26 46/14/26 42/12/26
f 48/112/27 44/110/27 43/52/27 47/56/27
f 45/111/28 49/113/28 50/16/28 46/14/28
f 52/114/29 48/112/29 47/56/29 51/60/29
f 49/113/30 53/115/30 54/18/30 50/16/30
f 56/116/31 52/114/31 51/60/31 55/66/31
f 53/115/32 57/117/32 58/20/32 54/18/32
f 60/118/33 56/116/33 55/66/33 59/70/33
f 57/117/34 61/119/34 62/22/34 58/20/34
f 64/120/35 60/118/35 59/70/35 63/74/35
f 61/119/36 65/121/36 66/24/36 62/22/36
f 68/122/37 64/120/37 63/74/37 67/78/37
f 65/121/38 69/123/38 70/30/38 66/24/38
f 72/124/39 68/122/39 67/78/39 71/44/39
f 69/123/40 26/101/40 25/32/40 70/30/40
f 31/104/41 72/124/41 71/44/41 32/42/41
f 3/6/2 1/31/2 25/32/2 28/7/2
