# Blender v2.91.0 OBJ File: 'LifeIsPain_Environment.blend'
# www.blender.org
o Wall_Obs_Cube.011
v 2.510086 0.007990 0.966314
v 1.479916 0.007990 1.246902
v 0.420789 0.007990 1.111902
v -0.506057 0.007990 0.581875
v -1.159518 0.007990 -0.262505
v -1.440107 0.007990 -1.292679
v -1.305109 0.007990 -2.351805
v 2.510086 2.732731 0.966314
v 1.479916 2.732731 1.246902
v 0.420789 2.732731 1.111902
v -0.506057 2.732731 0.581875
v -1.159518 2.732731 -0.262505
v -1.440107 2.732731 -1.292679
v -1.305109 2.732731 -2.351805
vt 0.375450 0.493486
vt 0.450309 0.493486
vt 0.450308 0.702429
vt 0.375450 0.702429
vt 0.001159 0.493486
vt 0.076017 0.493486
vt 0.076017 0.702429
vt 0.001159 0.702429
vt 0.150875 0.493486
vt 0.150875 0.702429
vt 0.225733 0.493486
vt 0.225733 0.702429
vt 0.300592 0.493486
vt 0.300592 0.702429
vn 0.9920 0.0000 0.1264
vn -0.2628 0.0000 -0.9649
vn 0.1264 0.0000 -0.9920
vn 0.4964 0.0000 -0.8681
vn 0.7908 0.0000 -0.6120
vn 0.9649 0.0000 -0.2628
s off
f 6/1/1 7/2/1 14/3/1 13/4/1
f 1/5/2 2/6/2 9/7/2 8/8/2
f 2/6/3 3/9/3 10/10/3 9/7/3
f 3/9/4 4/11/4 11/12/4 10/10/4
f 4/11/5 5/13/5 12/14/5 11/12/5
f 5/13/6 6/1/6 13/4/6 12/14/6
