# Blender v2.91.0 OBJ File: 'LifeIsPain_Environment.blend'
# www.blender.org
o Wall_StoreFront_Cube.009
v 1.819596 0.684414 -0.802875
v 1.819596 -0.007998 4.336699
v 0.813690 -0.007998 -1.233470
v -4.964707 -0.007998 -1.233470
v 1.819596 2.716744 -1.233470
v 1.819596 2.716744 4.336699
v -4.964707 2.716744 -1.233470
v 1.819596 -0.007998 -1.233470
v 1.819596 2.176286 -0.802875
v 1.819596 0.684414 3.250262
v 1.819596 2.176286 3.250262
v 1.819596 1.354373 -1.233470
v 0.813690 2.716744 -1.233470
v -0.599944 -0.007998 -1.233470
v -0.599944 2.716744 -1.233470
v -3.437223 2.716744 -1.233470
v -3.437223 -0.007998 -1.233470
vt 0.929610 0.544233
vt 0.781311 0.544233
vt 0.741560 0.504356
vt 0.945365 0.504356
vt 0.781311 0.630150
vt 0.929610 0.630150
vt 0.945365 0.661276
vt 0.741560 0.661276
vt 0.945365 0.582816
vt 0.659419 0.668834
vt 0.707845 0.668834
vt 0.707845 0.825268
vt 0.659419 0.825268
vt 0.659419 0.747051
vt 0.775899 0.668834
vt 0.775899 0.825268
vt 0.912491 0.668834
vt 0.986026 0.668834
vt 0.986026 0.825268
vt 0.912491 0.825268
vn 1.0000 0.0000 0.0000
vn -0.0000 0.0000 -1.0000
s off
f 1/1/1 10/2/1 2/3/1 8/4/1
f 11/5/1 9/6/1 5/7/1 6/8/1
f 9/6/1 1/1/1 8/4/1 12/9/1 5/7/1
f 10/2/1 11/5/1 6/8/1 2/3/1
f 8/10/2 3/11/2 13/12/2 5/13/2 12/14/2
f 3/11/2 14/15/2 15/16/2 13/12/2
f 17/17/2 4/18/2 7/19/2 16/20/2
f 14/15/2 17/17/2 16/20/2 15/16/2
