# Blender v2.91.0 OBJ File: 'LifeIsPain_Environment.blend'
# www.blender.org
o Wall_Main_Cube.007
v 1.767255 -0.004682 -5.291044
v 1.767255 -0.004682 -2.277515
v -2.998700 -0.004682 -5.291044
v 1.768951 -0.004682 5.944486
v -1.628323 -0.004682 9.560638
v 1.767255 2.720060 -5.291044
v 1.767255 2.720060 -2.277515
v -3.490136 2.720060 -5.291044
v 1.768951 2.720060 5.944486
v -1.628323 2.720060 9.560638
v -0.861441 -0.004682 -5.291044
vt 0.245753 0.000439
vt 0.356359 0.000439
vt 0.356359 0.158194
vt 0.245753 0.158194
vt 0.169103 0.164453
vt 0.465168 0.164452
vt 0.465168 0.322462
vt 0.169103 0.322462
vt 0.001463 0.326184
vt 0.180713 0.326184
vt 0.303146 0.326184
vt 0.323830 0.486398
vt 0.001463 0.486398
vt 0.014245 0.000784
vt 0.202306 0.000784
vt 0.202306 0.157996
vt 0.014245 0.157996
vn 1.0000 0.0000 0.0000
vn 1.0000 0.0000 -0.0002
vn 0.0000 0.0000 -1.0000
vn 0.7288 0.0000 0.6847
s off
f 2/1/1 1/2/1 6/3/1 7/4/1
f 4/5/2 2/6/2 7/7/2 9/8/2
f 1/9/3 11/10/3 3/11/3 8/12/3 6/13/3
f 5/14/4 4/15/4 9/16/4 10/17/4
