# Blender v2.91.0 OBJ File: 'LifeIsPain_Environment.blend'
# www.blender.org
o Cylinder.001
v -0.429736 0.647126 -14.856579
v -0.201504 0.647126 -14.799473
v -0.080499 0.647126 -14.597709
v -0.137604 0.647126 -14.369476
v -0.339368 0.647126 -14.248471
v -0.567600 0.647126 -14.305577
v -0.688606 0.647126 -14.507341
v -0.631500 0.647126 -14.735573
v -0.386476 -0.000000 -14.874000
v -0.138072 -0.000000 -14.811848
v -0.006373 -0.000000 -14.592252
v -0.068525 -0.000000 -14.343848
v -0.288121 -0.000000 -14.212149
v -0.536524 -0.000000 -14.274302
v -0.668224 -0.000000 -14.493896
v -0.606071 -0.000000 -14.742300
v -0.303408 1.203109 -14.776299
v -0.475284 1.203109 -14.819303
v -0.181328 1.203109 -14.627481
v -0.230867 1.203109 -14.429487
v -0.405899 1.203109 -14.324515
v -0.579105 1.203109 -14.404358
v -0.670231 1.203109 -14.556301
v -0.627227 1.203109 -14.728177
v -0.410755 1.663696 -14.864304
v -0.549691 1.556184 -14.887287
v -0.354532 1.743528 -14.733878
v -0.413959 1.779709 -14.572412
v -0.554223 1.739680 -14.474488
v -0.693160 1.658255 -14.497472
v -0.749382 1.552336 -14.627897
v -0.689956 1.510057 -14.789364
v -0.630671 1.779252 -15.088707
v -0.689837 1.649439 -15.030901
v -0.660241 1.850332 -15.013145
v -0.761226 1.880021 -14.848479
v -0.874470 1.850928 -14.691168
v -0.933636 1.780095 -14.633362
v -0.904066 1.650809 -14.708923
v -0.709216 1.641176 -14.804738
v -1.507812 1.796309 -15.759551
v -1.566978 1.688630 -15.701745
v -1.537382 1.867388 -15.683990
v -1.638366 1.897077 -15.519323
v -1.751610 1.867984 -15.362012
v -1.810776 1.797152 -15.304206
v -1.781206 1.690000 -15.379767
v -1.451718 1.680367 -15.372610
vt 0.052792 0.748220
vt 0.052143 0.773460
vt 0.044882 0.773460
vt 0.045503 0.748220
vt 0.037580 0.773460
vt 0.038136 0.748220
vt 0.030325 0.773460
vt 0.030730 0.748220
vt 0.023194 0.773460
vt 0.023365 0.748220
vt 0.016052 0.773460
vt 0.016091 0.748220
vt 0.074357 0.748220
vt 0.074054 0.773460
vt 0.066690 0.773460
vt 0.067172 0.748220
vt 0.059400 0.773460
vt 0.067079 0.794867
vt 0.059344 0.794867
vt 0.059990 0.748220
vt 0.073925 0.794867
vt 0.072947 0.813408
vt 0.064605 0.813408
vt 0.022029 0.794867
vt 0.015815 0.794867
vt 0.036817 0.794867
vt 0.029210 0.794867
vt 0.051320 0.794867
vt 0.044341 0.794867
vt 0.043082 0.813408
vt 0.048482 0.813408
vt 0.048751 0.822369
vt 0.042453 0.822369
vt 0.029500 0.813408
vt 0.022672 0.813408
vt 0.037465 0.813408
vt 0.055700 0.813408
vt 0.016265 0.813408
vt 0.057613 0.823174
vt 0.068612 0.823174
vt 0.068233 0.838995
vt 0.057946 0.838995
vt 0.055936 0.822369
vt 0.071527 0.822369
vt 0.065278 0.822369
vt 0.030410 0.822369
vt 0.022714 0.822369
vt 0.038200 0.822369
vt 0.016494 0.822369
vt 0.011176 0.823174
vt 0.016200 0.823174
vt 0.016376 0.838995
vt 0.010693 0.838995
vt 0.025261 0.823174
vt 0.034432 0.823174
vt 0.034777 0.838995
vt 0.026042 0.838995
vt 0.039440 0.823174
vt 0.046854 0.823174
vt 0.046731 0.838995
vt 0.040642 0.838995
vt 0.075969 0.823174
vt 0.075030 0.838995
vn 0.2425 0.0423 -0.9692
vn 0.8538 0.0935 -0.5121
vn 0.9639 0.1124 0.2412
vn 0.5123 0.0885 0.8542
vn -0.2426 0.0352 0.9695
vn -0.8575 -0.0163 0.5143
vn -0.9700 0.0107 -0.2427
vn -0.9695 -0.0356 -0.2426
vn -0.5143 -0.0113 -0.8575
vn -0.8644 -0.1070 0.4912
vn -0.3203 0.1252 0.9390
vn 0.9532 0.1856 0.2385
vn -0.5143 0.0154 -0.8575
vn -0.8553 0.0734 0.5129
vn 0.5063 0.1760 0.8442
vn 0.8131 0.1449 -0.5638
vn 0.2418 0.0846 -0.9666
vn 0.4639 -0.4950 -0.7347
vn 0.4741 0.3533 0.8065
vn 0.8205 0.1215 -0.5586
vn -0.9333 -0.2533 -0.2546
vn -0.3421 0.1374 0.9296
vn 0.9079 0.3433 0.2407
vn 0.2483 -0.1286 -0.9601
vn -0.4940 -0.2647 -0.8282
vn -0.0388 -0.9992 -0.0125
vn -0.5844 -0.7027 -0.4058
vn -0.6125 -0.4804 0.6278
vn 0.0638 0.9455 0.3194
vn 0.6907 0.5378 -0.4834
vn -0.6017 -0.6505 -0.4635
vn -0.2754 0.5402 0.7952
vn 0.3258 0.9450 -0.0306
vn -0.3888 0.7553 0.5276
vn 0.1058 0.9879 -0.1132
vn 0.4891 -0.5665 -0.6632
vn -0.0295 -0.9993 -0.0246
vn -0.5189 -0.5487 0.6555
vn -0.0778 0.9889 0.1269
vn 0.4193 0.7374 -0.5295
s off
f 9/1/1 1/2/1 2/3/1 10/4/1
f 10/4/2 2/3/2 3/5/2 11/6/2
f 11/6/3 3/5/3 4/7/3 12/8/3
f 12/8/4 4/7/4 5/9/4 13/10/4
f 13/10/5 5/9/5 6/11/5 14/12/5
f 14/13/6 6/14/6 7/15/6 15/16/6
f 8/17/7 7/15/7 23/18/7 24/19/7
f 15/16/8 7/15/8 8/17/8 16/20/8
f 16/20/9 8/17/9 1/2/9 9/1/9
f 23/18/10 22/21/10 30/22/10 31/23/10
f 6/11/11 5/9/11 21/24/11 22/25/11
f 4/7/12 3/5/12 19/26/12 20/27/12
f 1/2/13 8/17/13 24/19/13 18/28/13
f 7/15/14 6/14/14 22/21/14 23/18/14
f 5/9/15 4/7/15 20/27/15 21/24/15
f 3/5/16 2/3/16 17/29/16 19/26/16
f 2/3/17 1/2/17 18/28/17 17/29/17
f 25/30/18 26/31/18 34/32/18 33/33/18
f 21/24/19 20/27/19 28/34/19 29/35/19
f 19/26/20 17/29/20 25/30/20 27/36/20
f 24/19/21 23/18/21 31/23/21 32/37/21
f 22/25/22 21/24/22 29/35/22 30/38/22
f 20/27/23 19/26/23 27/36/23 28/34/23
f 17/29/24 18/28/24 26/31/24 25/30/24
f 18/28/25 24/19/25 32/37/25 26/31/25
f 40/39/26 39/40/26 47/41/26 48/42/26
f 26/31/27 32/37/27 40/43/27 34/32/27
f 31/23/28 30/22/28 38/44/28 39/45/28
f 29/35/29 28/34/29 36/46/29 37/47/29
f 27/36/30 25/30/30 33/33/30 35/48/30
f 32/37/31 31/23/31 39/45/31 40/43/31
f 30/38/32 29/35/32 37/47/32 38/49/32
f 28/34/33 27/36/33 35/48/33 36/46/33
f 38/50/34 37/51/34 45/52/34 46/53/34
f 36/54/35 35/55/35 43/56/35 44/57/35
f 33/58/36 34/59/36 42/60/36 41/61/36
f 34/59/37 40/39/37 48/42/37 42/60/37
f 39/40/38 38/62/38 46/63/38 47/41/38
f 37/51/39 36/54/39 44/57/39 45/52/39
f 35/55/40 33/58/40 41/61/40 43/56/40
