# Blender v2.91.0 OBJ File: ''
# www.blender.org
o StoreShelf_Cube.016
v -1.597260 -0.327649 -0.241463
v 1.242311 -0.327649 -0.241463
v 1.242311 -0.927238 -0.373759
v -1.597260 -0.927238 -0.373759
v -1.597260 0.934127 0.350762
v 1.242311 0.934127 0.350762
v 1.242311 0.934127 0.176778
v -1.597260 0.934127 0.176778
v 1.242311 -0.927238 0.350761
v 1.242311 0.309390 0.075986
v -1.597260 0.309390 0.075986
v 1.242311 0.325977 -0.024805
v -1.597260 0.325977 -0.024805
v 1.242311 -0.321498 -0.133133
v -1.597260 -0.321498 -0.133133
v 1.242311 -0.927238 -0.011498
vt 0.734502 0.231630
vt 0.682848 0.231630
vt 0.682848 0.203385
vt 0.734502 0.203385
vt 0.663111 0.204156
vt 0.663111 0.306470
vt 0.659211 0.306470
vt 0.659211 0.204156
vt 0.658120 0.110389
vt 0.666628 0.169423
vt 0.663507 0.199247
vt 0.658120 0.199247
vt 0.733909 0.292375
vt 0.682881 0.292375
vt 0.682881 0.263768
vt 0.733909 0.263768
vt 0.670670 0.203466
vt 0.670670 0.306107
vt 0.668022 0.306107
vt 0.668022 0.203466
vt 0.734274 0.263515
vt 0.682945 0.263515
vt 0.682945 0.232940
vt 0.734274 0.232940
vt 0.675783 0.203096
vt 0.675783 0.306840
vt 0.673841 0.306840
vt 0.673841 0.203096
vt 0.669337 0.110389
vt 0.672066 0.138573
vt 0.669261 0.169605
vt 0.678174 0.110389
vt 0.674871 0.138402
vn 0.0000 0.2155 -0.9765
vn 0.0000 1.0000 0.0000
vn 1.0000 -0.0000 0.0000
vn 0.0000 0.1593 -0.9872
vn 0.0000 0.9867 0.1624
vn 0.0000 0.1650 -0.9863
vn 0.0000 0.9984 -0.0567
s 1
f 1/1/1 2/2/1 3/3/1 4/4/1
f 5/5/2 6/6/2 7/7/2 8/8/2
f 9/9/3 10/10/3 7/11/3 6/12/3
f 8/13/4 7/14/4 10/15/4 11/16/4
f 11/17/5 10/18/5 12/19/5 13/20/5
f 13/21/6 12/22/6 14/23/6 15/24/6
f 15/25/7 14/26/7 2/27/7 1/28/7
f 16/29/3 14/30/3 12/31/3 10/10/3 9/9/3
f 3/32/3 2/33/3 14/30/3 16/29/3
