# Blender v2.91.0 OBJ File: 'LifeIsPain_Environment.blend'
# www.blender.org
o Cube.002_Cube.019
v 11.894324 0.006101 20.207712
v 11.894324 0.832221 20.207712
v 11.894324 0.006101 20.646317
v 11.894324 0.832221 20.646317
v 11.504159 0.006101 20.207712
v 11.504159 0.832221 20.207712
v 11.504159 0.006101 20.646317
v 11.504159 0.832221 20.646317
v 11.494985 0.006101 19.473433
v 11.494985 0.573741 19.473433
v 11.880372 0.006101 19.682837
v 11.880372 0.573741 19.682837
v 11.308707 0.006101 19.816259
v 11.308707 0.573741 19.816259
v 11.694095 0.006101 20.025663
v 11.694095 0.573741 20.025663
v 11.454760 0.178432 19.379850
v 11.874755 0.178432 19.506252
v 11.342319 0.178432 19.753464
v 11.762313 0.178432 19.879864
v 11.913978 0.660182 20.114952
v 12.004868 0.660182 20.544035
v 11.532282 0.660182 20.195803
v 11.623171 0.660182 20.624886
vt 0.097341 0.847754
vt 0.097341 0.803447
vt 0.120865 0.803447
vt 0.120865 0.847754
vt 0.136948 0.847754
vt 0.136948 0.803447
vt 0.157873 0.803447
vt 0.157873 0.847754
vt 0.097267 0.847754
vt 0.097267 0.803447
vt 0.120791 0.803447
vt 0.120791 0.847754
vt 0.127342 0.847754
vt 0.127342 0.803447
vt 0.146403 0.803447
vt 0.146403 0.847754
vt 0.097735 0.832097
vt 0.097735 0.802836
vt 0.120816 0.802836
vt 0.120816 0.832097
vt 0.098175 0.798720
vt 0.098175 0.779411
vt 0.120632 0.779411
vt 0.120632 0.798720
vt 0.127399 0.831852
vt 0.127399 0.802809
vt 0.146304 0.802809
vt 0.146304 0.831852
vt 0.999795 0.745967
vt 0.744402 0.745967
vt 0.744402 0.548630
vt 0.999795 0.548630
vt 0.744402 0.373086
vt 0.999795 0.373086
vt 0.124704 0.798478
vt 0.124704 0.779542
vt 0.148143 0.779542
vt 0.148143 0.798478
vt 0.148279 0.756300
vt 0.148279 0.775060
vt 0.125499 0.775060
vt 0.125499 0.756300
vt 0.097919 0.775057
vt 0.097919 0.756197
vt 0.120585 0.756197
vt 0.120585 0.775057
vn 1.0000 0.0000 0.0000
vn 0.0000 0.0000 1.0000
vn -1.0000 0.0000 0.0000
vn 0.0000 0.0000 -1.0000
vn 0.4774 0.0000 -0.8787
vn 0.0000 1.0000 0.0000
vn 0.8787 0.0000 0.4774
vn -0.4774 0.0000 0.8787
vn -0.8787 0.0000 -0.4774
s off
f 1/1/1 2/2/1 4/3/1 3/4/1
f 3/5/2 4/6/2 8/7/2 7/8/2
f 7/9/3 8/10/3 6/11/3 5/12/3
f 5/13/4 6/14/4 2/15/4 1/16/4
f 9/17/5 10/18/5 12/19/5 11/20/5
f 8/21/6 4/22/6 2/23/6 6/24/6
f 11/25/7 12/26/7 16/27/7 15/28/7
f 15/29/8 16/30/8 14/31/8 13/32/8
f 13/32/9 14/31/9 10/33/9 9/34/9
f 16/35/6 12/36/6 10/37/6 14/38/6
f 20/39/6 18/40/6 17/41/6 19/42/6
f 24/43/6 22/44/6 21/45/6 23/46/6
