# Blender v2.91.0 OBJ File: 'LifeIsPain_Environment.blend'
# www.blender.org
o Environment_Cube
v 3.330167 0.000000 -0.907929
v -3.330167 0.000000 -0.907929
v 3.330167 0.000000 -6.582022
v -3.330167 0.000000 -3.330167
v 3.330167 0.000000 2.105600
v -3.330167 0.000000 2.105600
v -3.330167 0.000000 -4.258842
v -3.330167 0.000000 -5.727724
v 1.343835 0.000000 -17.714922
v 8.004169 0.000000 -13.005590
v -8.096121 0.000000 -0.907929
v -7.236107 0.000000 -3.330167
v -4.331402 0.000000 -4.258842
v -4.331402 0.000000 -5.727724
v -10.114470 0.000000 -4.258842
v -10.114470 0.000000 -5.727724
v -4.336072 0.000000 -11.297893
v -10.114470 0.000000 -11.297893
v 3.330167 0.000000 0.527694
v 4.131591 0.000000 -0.907929
v 4.131591 0.000000 0.527694
v 9.634418 0.000000 -0.907929
v 9.634418 0.000000 0.527694
v 4.131591 0.000000 -4.716877
v 9.634418 0.000000 -4.716877
v 4.131591 0.000000 1.704213
v 9.634418 0.000000 1.704213
v 6.079510 0.000000 4.698793
v 6.079510 0.000000 10.329407
v -3.328470 0.000000 10.327600
v 2.082381 0.000000 14.684704
v 9.571932 0.000000 13.600241
v 5.569713 0.000000 17.960955
v 1.730751 0.000000 15.058989
v 5.218083 0.000000 18.335239
v 3.446376 0.000000 13.183260
v 6.936253 0.000000 16.456802
v -6.725744 0.000000 13.943753
v -3.303541 0.000000 17.158817
v 1.810025 0.000000 21.962870
v -6.914782 0.000000 21.002722
v -1.801215 0.000000 25.806774
v 7.373513 0.000000 19.599728
v 8.740053 0.000000 18.095575
v 11.184199 0.000000 18.218819
v 10.125067 0.000000 18.083824
v 12.111045 0.000000 18.748850
v 12.764503 0.000000 19.593229
v 13.045092 0.000000 20.623404
v 12.910091 0.000000 21.682531
v 12.380056 0.000000 22.609379
v 11.535681 0.000000 23.262836
v 10.505510 0.000000 23.543425
v 9.446383 0.000000 23.408424
v 8.519538 0.000000 22.878397
v 7.866076 0.000000 22.034018
v 7.585487 0.000000 21.003843
v 7.720486 0.000000 19.944717
v 8.250519 0.000000 19.017857
v 9.094898 0.000000 18.364403
v 8.609912 0.000000 20.718262
v 9.984325 0.000000 19.137951
v 10.628303 0.000000 22.473680
v 12.002714 0.000000 20.893372
v 9.628085 0.000000 21.603779
v 11.002498 0.000000 20.023468
v 6.252983 0.000000 17.208878
v 8.056783 0.000000 18.847652
v -3.330167 0.000000 -11.297893
v 5.667168 0.000000 -9.793806
v -0.993165 0.000000 -14.503138
v -0.063264 0.000000 -8.981421
v 4.610738 0.000000 -15.404989
v -0.357493 0.000000 -10.378717
v 1.010377 0.000000 -12.251303
v -0.021268 0.000000 -12.980749
v -1.389139 0.000000 -11.108165
v 5.929680 0.000000 -13.277275
v 4.876809 0.000000 -14.021730
v 3.512961 0.000000 -12.154835
v 4.565833 0.000000 -11.410378
v 0.765070 0.000000 -14.061429
v 1.796716 0.000000 -13.331983
v 3.173836 0.000000 -15.217649
v 2.142191 0.000000 -15.947096
v 2.726622 0.000000 -11.074155
v 1.333451 0.000000 -9.165788
v 2.386323 0.000000 -8.421331
v 3.779494 0.000000 -10.329699
v 4.565833 0.351209 -11.410378
v 5.929680 0.351209 -13.277275
v 2.386323 0.351209 -8.421331
v 3.779494 0.351209 -10.329699
v -0.357493 0.351209 -10.378717
v 1.010377 0.351209 -12.251303
v -1.389139 0.351209 -11.108165
v -0.021268 0.351209 -12.980749
v 4.876809 0.351209 -14.021730
v 3.512961 0.351209 -12.154835
v 1.796716 0.351209 -13.331983
v 0.765070 0.351209 -14.061429
v 2.142191 0.351209 -15.947096
v 3.173836 0.351209 -15.217649
v 1.333451 0.351209 -9.165788
v 2.726622 0.351209 -11.074155
v -0.404788 0.351209 -10.667687
v 0.716914 0.351209 -12.203273
v 0.026026 0.351209 -12.691779
v -1.095676 0.351209 -11.156195
v 5.636209 0.351209 -13.229251
v 4.924096 0.351209 -13.732766
v 3.806432 0.351209 -12.202859
v 4.518546 0.351209 -11.699343
v 1.058515 0.351209 -14.109472
v 1.749403 0.351209 -13.620965
v 2.880391 0.351209 -15.169606
v 2.189503 0.351209 -15.658113
v 2.773964 0.351209 -10.785151
v 1.626865 0.351209 -9.213853
v 2.338981 0.351209 -8.710335
v 3.486080 0.351209 -10.281633
v -5.746179 0.000000 -4.258842
v -5.746179 0.000000 -4.983362
v -5.749706 0.000000 -11.297893
v -9.502000 0.000000 -5.174538
v -8.585751 0.722317 -4.258842
v -9.502000 0.000000 -4.258842
v -9.502000 0.722317 -4.258842
v -8.585751 0.000000 -4.258842
v -8.585751 0.000000 -4.983362
v -8.586986 0.000000 -11.297893
v -9.502247 0.000000 -8.236216
v -8.586369 0.000000 -8.236216
v -9.502247 0.722317 -8.236216
v -8.586369 0.722317 -8.236216
v -8.586060 0.722317 -4.945730
v -9.502123 0.722317 -4.945730
v -5.746179 1.861365 -4.258842
v -8.585751 1.861365 -4.258842
v -5.746179 1.861365 -4.432825
v -8.585751 1.861365 -4.432825
v -5.746179 1.236628 -4.533617
v -8.585751 1.236628 -4.533617
v -8.585751 1.253215 -4.634409
v -5.746179 1.253215 -4.634409
v -8.585751 0.599589 -4.851066
v -5.746179 0.599589 -4.851066
v -8.585751 0.605740 -4.742737
v -5.746179 0.605740 -4.742737
v -5.746179 0.000000 -4.621101
v -5.958862 0.000000 -0.907929
v -5.958861 0.000000 -3.330167
v -3.330167 0.000000 -2.119048
v -8.048867 0.000000 -2.119048
v -5.958861 0.000000 -2.119048
v -7.944910 0.000000 -1.730854
v -7.188854 0.000000 -2.469438
v -5.663435 0.005183 21.347582
v -5.663435 1.104786 21.347582
v -5.663435 0.005183 20.247980
v -5.663435 1.104786 20.247980
v -4.563833 0.005183 21.347582
v -4.563833 1.104786 21.347582
v -4.563833 0.005183 20.247980
v -4.563833 1.104786 20.247980
v -4.994783 0.020781 22.003511
v -4.994783 0.599263 22.003511
v -4.724747 0.020781 21.491926
v -4.724747 0.599263 21.491926
v -4.483197 0.020781 22.273548
v -4.483197 0.599263 22.273548
v -4.213161 0.020781 21.761963
v -4.213161 0.599263 21.761963
v -0.223003 0.005183 21.989731
v -0.223003 1.104786 21.989731
v 0.698852 0.005183 21.390308
v 0.698852 1.104786 21.390308
v 0.376420 0.005183 22.911585
v 0.376420 1.104786 22.911585
v 1.298275 0.005183 22.312162
v 1.298275 1.104786 22.312162
v 1.041915 0.020781 21.298853
v 1.041915 0.599263 21.298853
v 1.618008 0.020781 21.246361
v 1.618008 0.599263 21.246361
v 1.094409 0.020781 21.874949
v 1.094409 0.599263 21.874949
v 1.670502 0.020781 21.822454
v 1.670502 0.599263 21.822454
vt 0.513275 0.670702
vt 0.513275 0.726468
vt 0.520869 0.726468
vt 0.520869 0.670702
vt 0.256033 0.755673
vt 0.286837 0.755673
vt 0.312642 0.995110
vt 0.256033 0.995110
vt 0.312642 0.755673
vt 0.356181 0.995110
vt 0.334411 0.995110
vt 0.617857 0.132254
vt 0.588748 0.132254
vt 0.588748 0.092570
vt 0.617857 0.092570
vt 0.222139 0.824577
vt 0.222139 0.791658
vt 0.244157 0.771771
vt 0.244157 0.824577
vt 0.528287 0.114508
vt 0.533338 0.052616
vt 0.655791 0.052821
vt 0.655791 0.114662
vt 0.414632 0.755673
vt 0.372874 0.995110
vt 0.620570 0.132429
vt 0.587224 0.132429
vt 0.587224 0.096015
vt 0.620570 0.096015
vt 0.799592 0.306412
vt 0.766246 0.306412
vt 0.766246 0.056382
vt 0.799592 0.056382
vt 0.888063 0.056382
vt 0.888063 0.306412
vt 0.738919 0.306412
vt 0.738919 0.056382
vt 0.499558 0.247868
vt 0.249548 0.247868
vt 0.312655 0.127663
vt 0.441052 0.127663
vt 0.244868 0.358797
vt 0.244868 0.458324
vt 0.151054 0.458693
vt 0.151054 0.409162
vt 0.151054 0.359016
vt 0.244868 0.488850
vt 0.151054 0.489219
vt 0.244868 0.227025
vt 0.151054 0.227094
vt 0.000539 0.501519
vt 0.102204 0.501519
vt 0.149331 0.677566
vt 0.000539 0.677566
vt 0.249651 0.502049
vt 0.249651 0.677566
vt 0.149331 0.846549
vt 0.000539 0.846549
vt 0.151058 0.408726
vt 0.151058 0.459015
vt 0.053840 0.459015
vt 0.053840 0.408726
vt 0.051184 0.027449
vt 0.044161 0.101873
vt 0.013940 0.101830
vt 0.028863 0.057231
vt 0.111295 0.206999
vt 0.140917 0.207041
vt 0.125994 0.251639
vt 0.103674 0.281421
vt 0.044123 0.207137
vt 0.013903 0.207094
vt 0.008687 0.154455
vt 0.152703 0.154594
vt 0.153238 0.205653
vt 0.140969 0.207275
vt 0.146222 0.154649
vt 0.141006 0.102010
vt 0.111346 0.207232
vt 0.111384 0.101968
vt 0.077436 0.207185
vt 0.103726 0.281655
vt 0.077406 0.292087
vt 0.126115 0.057369
vt 0.103816 0.027524
vt 0.077473 0.101920
vt 0.051093 0.281580
vt 0.028794 0.251735
vt 0.077503 0.017017
vt 0.151058 0.358437
vt 0.053840 0.358437
vt 0.152168 0.103534
vt 0.336014 0.748793
vt 0.249786 0.571214
vt 0.256559 0.558079
vt 0.283076 0.508085
vt 0.482941 0.748793
vt 0.482941 0.508085
vt 0.505731 0.382872
vt 0.505727 0.348844
vt 0.521687 0.348851
vt 0.521690 0.382872
vt 0.503358 0.514713
vt 0.503358 0.569396
vt 0.510959 0.569396
vt 0.510959 0.514713
vt 0.513226 0.568893
vt 0.513226 0.670133
vt 0.520893 0.670133
vt 0.520893 0.568893
vt 0.457761 0.877666
vt 0.499399 0.995110
vt 0.399277 0.995110
vt 0.513275 0.570713
vt 0.520869 0.570713
vt 0.645453 0.692566
vt 0.683111 0.643153
vt 0.683140 0.694711
vt 0.683274 0.790878
vt 0.645278 0.692507
vt 0.683068 0.790129
vt 0.665414 0.820837
vt 0.645278 0.789762
vt 0.713123 0.695331
vt 0.713123 0.643773
vt 0.713123 0.693829
vt 0.744824 0.667471
vt 0.744824 0.820837
vt 0.713123 0.790195
vt 0.587082 0.820837
vt 0.618196 0.789697
vt 0.744824 0.513787
vt 0.713123 0.642155
vt 0.587082 0.667050
vt 0.618196 0.692442
vt 0.558838 0.817799
vt 0.558838 0.735252
vt 0.578992 0.735252
vt 0.578992 0.817799
vt 0.547681 0.712528
vt 0.527624 0.712528
vt 0.527624 0.630116
vt 0.547681 0.630116
vt 0.578945 0.712809
vt 0.558984 0.712809
vt 0.558984 0.629731
vt 0.578945 0.629731
vt 0.527753 0.818243
vt 0.527753 0.735445
vt 0.547751 0.735445
vt 0.547751 0.818243
vt 0.503365 0.725696
vt 0.503365 0.827000
vt 0.510894 0.827000
vt 0.510894 0.725696
vt 0.513226 0.513732
vt 0.520893 0.513732
vt 0.503358 0.725137
vt 0.503358 0.826196
vt 0.510959 0.826196
vt 0.510959 0.725137
vt 0.513275 0.826458
vt 0.520869 0.826458
vt 0.503365 0.670410
vt 0.510894 0.670410
vt 0.513226 0.725294
vt 0.520893 0.725294
vt 0.503358 0.670454
vt 0.510959 0.670454
vt 0.513275 0.514947
vt 0.520869 0.514947
vt 0.503365 0.513820
vt 0.503365 0.569106
vt 0.510894 0.569106
vt 0.510894 0.513820
vt 0.513226 0.826535
vt 0.520893 0.826535
vt 0.554806 0.826856
vt 0.554806 0.726194
vt 0.583024 0.726194
vt 0.583024 0.826856
vt 0.551526 0.721079
vt 0.523779 0.721079
vt 0.523779 0.621565
vt 0.551526 0.621565
vt 0.582889 0.720832
vt 0.555040 0.720832
vt 0.555040 0.621709
vt 0.582889 0.621709
vt 0.523780 0.826621
vt 0.523780 0.727067
vt 0.551724 0.727067
vt 0.551724 0.826621
vt 0.618196 0.640401
vt 0.645424 0.641008
vt 0.618196 0.691959
vt 0.645292 0.543023
vt 0.683068 0.642088
vt 0.645278 0.542647
vt 0.663533 0.513787
vt 0.683068 0.542208
vt 0.713123 0.542275
vt 0.587082 0.513787
vt 0.618196 0.542582
vt 0.618196 0.640768
vt 0.528287 0.238729
vt 0.655791 0.238783
vt 0.588207 0.238756
vt 0.506004 0.052617
vt 0.517622 0.114508
vt 0.506536 0.305605
vt 0.506536 0.278811
vt 0.588207 0.278822
vt 0.655791 0.305605
vt 0.597609 0.345160
vt 0.521851 0.345160
vt 0.522717 0.316418
vt 0.597609 0.316418
vt 0.734502 0.231630
vt 0.682848 0.231630
vt 0.682848 0.203385
vt 0.734502 0.203385
vt 0.506036 0.345160
vt 0.506036 0.316418
vt 0.616117 0.317640
vt 0.599988 0.317640
vt 0.599988 0.346172
vt 0.616117 0.346172
vt 0.598140 0.348844
vt 0.598144 0.382858
vt 0.663111 0.204156
vt 0.663111 0.306470
vt 0.659211 0.306470
vt 0.659211 0.204156
vt 0.658120 0.110389
vt 0.666628 0.169423
vt 0.663507 0.199247
vt 0.658120 0.199247
vt 0.733909 0.292375
vt 0.682881 0.292375
vt 0.682881 0.263768
vt 0.733909 0.263768
vt 0.670670 0.203466
vt 0.670670 0.306107
vt 0.668022 0.306107
vt 0.668022 0.203466
vt 0.734274 0.263515
vt 0.682945 0.263515
vt 0.682945 0.232940
vt 0.734274 0.232940
vt 0.675783 0.203096
vt 0.675783 0.306840
vt 0.673841 0.306840
vt 0.673841 0.203096
vt 0.669337 0.110389
vt 0.672066 0.138573
vt 0.669261 0.169605
vt 0.505853 0.114460
vt 0.505853 0.052449
vt 0.678174 0.110389
vt 0.674871 0.138402
vt 0.463899 0.254285
vt 0.496486 0.254285
vt 0.496486 0.341602
vt 0.463899 0.341602
vt 0.431314 0.254285
vt 0.431314 0.341602
vt 0.474426 0.400221
vt 0.461458 0.454068
vt 0.453455 0.448474
vt 0.431314 0.456611
vt 0.496486 0.408868
vt 0.243963 0.687840
vt 0.243963 0.771077
vt 0.202498 0.771077
vt 0.202498 0.687840
vt 0.244048 0.688453
vt 0.244048 0.771198
vt 0.202675 0.771198
vt 0.202675 0.688453
vt 0.243937 0.775546
vt 0.243937 0.858878
vt 0.202271 0.858878
vt 0.202271 0.775546
vt 0.243803 0.688415
vt 0.243803 0.771159
vt 0.202431 0.771159
vt 0.202431 0.688415
vt 0.125000 0.500000
vt 0.375000 0.500000
vt 0.375000 0.750000
vt 0.125000 0.750000
vt 0.243979 0.687635
vt 0.202361 0.687635
vt 0.203652 0.561763
vt 0.241118 0.561763
vt 0.241118 0.636695
vt 0.203652 0.636695
vt 0.200423 0.685919
vt 0.200423 0.736038
vt 0.175363 0.736038
vt 0.175363 0.685919
vt 0.200000 0.741011
vt 0.200000 0.788747
vt 0.175979 0.788747
vt 0.175979 0.741011
vt 0.203652 0.786559
vt 0.241118 0.786559
vt 0.241118 0.861491
vt 0.203652 0.861491
vt 0.125000 0.500000
vt 0.375000 0.500000
vt 0.375000 0.750000
vt 0.125000 0.750000
vt 0.175877 0.687722
vt 0.200044 0.687722
vt 0.200044 0.736443
vt 0.175877 0.736443
vt 0.244090 0.775858
vt 0.244090 0.859034
vt 0.202502 0.859034
vt 0.202502 0.775858
vt 0.244040 0.688064
vt 0.244040 0.771301
vt 0.202421 0.771301
vt 0.202421 0.688064
vt 0.244040 0.687942
vt 0.244040 0.771179
vt 0.202422 0.771179
vt 0.202422 0.687942
vt 0.244114 0.687739
vt 0.244114 0.771273
vt 0.202501 0.771273
vt 0.202501 0.687739
vt 0.125000 0.500000
vt 0.375000 0.500000
vt 0.375000 0.750000
vt 0.125000 0.750000
vt 0.202279 0.687899
vt 0.243948 0.687899
vt 0.243948 0.770930
vt 0.202279 0.770930
vt 0.199865 0.688331
vt 0.199865 0.735435
vt 0.176119 0.735435
vt 0.176119 0.688331
vt 0.200069 0.740883
vt 0.200069 0.788813
vt 0.176104 0.788813
vt 0.176104 0.740883
vt 0.200005 0.687871
vt 0.200005 0.736022
vt 0.175930 0.736022
vt 0.175930 0.687871
vt 0.375000 0.750000
vt 0.625000 0.750000
vt 0.625000 1.000000
vt 0.375000 1.000000
vt 0.125000 0.500000
vt 0.375000 0.500000
vt 0.125000 0.750000
vt 0.176104 0.688175
vt 0.199817 0.688175
vt 0.199817 0.735602
vt 0.176104 0.735602
vn 0.5773 0.0000 -0.8165
vn 0.0000 1.0000 0.0000
vn -0.5773 0.0000 0.8165
vn 0.8075 0.0000 0.5899
vn -0.8077 0.0000 -0.5896
vn -0.8076 0.0000 -0.5898
vn -0.8075 0.0000 -0.5899
vn 0.8076 0.0000 0.5898
vn 0.8077 0.0000 0.5896
vn 1.0000 0.0002 -0.0001
vn 0.0000 0.2155 -0.9765
vn 1.0000 0.0002 -0.0002
vn 0.0000 0.0000 -1.0000
vn 1.0000 0.0000 0.0000
vn 0.0000 0.1593 -0.9872
vn 0.0000 0.9867 0.1624
vn 0.0000 0.1650 -0.9863
vn 0.0000 0.9984 -0.0567
vn -1.0000 0.0000 0.0000
vn 0.0000 0.0000 1.0000
vn 0.0000 -1.0000 0.0000
vn -0.8844 0.0000 -0.4668
vn 0.4668 0.0000 -0.8844
vn 0.8844 0.0000 0.4668
vn -0.4668 0.0000 0.8844
vn -0.5451 0.0000 -0.8384
vn 0.8384 0.0000 -0.5451
vn 0.5451 0.0000 0.8384
vn -0.8384 0.0000 0.5451
vn -0.0907 0.0000 -0.9959
vn 0.9959 0.0000 -0.0907
vn 0.0907 0.0000 0.9959
vn -0.9959 0.0000 0.0907
s off
f 78/1/1 79/2/1 98/3/1 91/4/1
f 5/5/2 19/6/2 2/7/2 6/8/2
f 19/6/2 1/9/2 4/10/2 153/11/2 2/7/2
f 7/12/2 8/13/2 14/14/2 13/15/2
f 127/16/2 125/17/2 16/18/2 15/19/2
f 123/20/2 14/21/2 17/22/2 124/23/2
f 1/9/2 3/24/2 7/25/2 4/10/2
f 1/26/2 19/27/2 21/28/2 20/29/2
f 20/30/2 21/31/2 23/32/2 22/33/2
f 20/30/2 22/33/2 25/34/2 24/35/2
f 23/32/2 21/31/2 26/36/2 27/37/2
f 5/38/2 36/39/2 29/40/2 28/41/2
f 36/42/2 31/43/2 33/44/2 67/45/2 37/46/2
f 33/44/2 31/43/2 34/47/2 35/48/2
f 29/49/2 36/42/2 37/46/2 32/50/2
f 35/51/2 34/52/2 39/53/2 40/54/2
f 34/52/2 30/55/2 38/56/2 39/53/2
f 40/54/2 39/53/2 41/57/2 42/58/2
f 67/59/2 33/60/2 43/61/2 68/62/2
f 48/63/2 64/64/2 50/65/2 49/66/2
f 61/67/2 58/68/2 57/69/2 56/70/2
f 64/64/2 63/71/2 52/72/2 51/73/2 50/65/2
f 68/74/2 43/75/2 58/76/2 59/77/2
f 60/78/2 59/77/2 58/76/2 61/79/2 62/80/2
f 65/81/2 61/79/2 56/82/2 55/83/2
f 46/84/2 60/78/2 62/80/2 45/85/2
f 66/86/2 65/81/2 63/71/2 64/64/2
f 52/72/2 63/71/2 54/87/2 53/88/2
f 47/89/2 66/86/2 64/64/2 48/63/2
f 62/80/2 61/79/2 65/81/2 66/86/2
f 63/71/2 65/81/2 55/83/2 54/87/2
f 45/85/2 62/80/2 66/86/2 47/89/2
f 37/90/2 67/59/2 68/62/2 44/91/2
f 44/92/2 68/74/2 59/77/2 60/78/2
f 30/93/2 34/94/2 31/95/2 36/96/2
f 6/97/2 30/93/2 36/96/2 5/98/2
f 128/99/2 126/100/2 136/101/2 137/102/2
f 82/103/3 83/104/3 100/105/3 101/106/3
f 74/107/4 75/108/4 95/109/4 94/110/4
f 72/111/2 69/112/2 8/113/2
f 81/114/4 78/1/4 91/4/4 90/115/4
f 3/24/2 72/111/2 8/113/2 7/25/2
f 83/116/2 86/117/2 80/118/2 79/119/2
f 83/120/2 79/121/2 73/122/2 84/123/2
f 81/124/2 80/118/2 86/117/2 89/125/2
f 81/126/2 70/127/2 10/128/2 78/129/2
f 9/130/2 85/131/2 84/123/2 73/122/2
f 10/128/2 73/122/2 79/121/2 78/129/2
f 3/132/2 70/127/2 81/126/2 89/133/2
f 71/134/2 82/135/2 85/131/2 9/130/2
f 106/136/2 107/137/2 108/138/2 109/139/2
f 110/140/2 111/141/2 112/142/2 113/143/2
f 114/144/2 115/145/2 116/146/2 117/147/2
f 118/148/2 119/149/2 120/150/2 121/151/2
f 86/152/5 87/153/5 104/154/5 105/155/5
f 77/156/3 74/107/3 94/110/3 96/157/3
f 85/158/6 82/159/6 101/160/6 102/161/6
f 79/2/7 80/162/7 99/163/7 98/3/7
f 89/164/1 86/152/1 105/155/1 93/165/1
f 75/108/1 76/166/1 97/167/1 95/109/1
f 83/104/8 84/168/8 103/169/8 100/105/8
f 80/170/3 81/114/3 90/115/3 99/171/3
f 87/172/3 88/173/3 92/174/3 104/175/3
f 76/166/7 77/176/7 96/177/7 97/167/7
f 84/168/1 85/158/1 102/161/1 103/169/1
f 88/173/9 89/164/9 93/165/9 92/174/9
f 94/178/2 95/179/2 107/137/2 106/136/2
f 95/179/2 97/180/2 108/138/2 107/137/2
f 97/180/2 96/181/2 109/139/2 108/138/2
f 96/181/2 94/178/2 106/136/2 109/139/2
f 91/182/2 98/183/2 111/141/2 110/140/2
f 98/183/2 99/184/2 112/142/2 111/141/2
f 99/184/2 90/185/2 113/143/2 112/142/2
f 90/185/2 91/182/2 110/140/2 113/143/2
f 101/186/2 100/187/2 115/145/2 114/144/2
f 100/187/2 103/188/2 116/146/2 115/145/2
f 103/188/2 102/189/2 117/147/2 116/146/2
f 102/189/2 101/186/2 114/144/2 117/147/2
f 105/190/2 104/191/2 119/149/2 118/148/2
f 104/191/2 92/192/2 120/150/2 119/149/2
f 92/192/2 93/193/2 121/151/2 120/150/2
f 93/193/2 105/190/2 118/148/2 121/151/2
f 76/194/2 75/195/2 83/116/2 82/196/2
f 75/195/2 74/197/2 86/117/2 83/116/2
f 86/198/2 74/199/2 72/200/2 87/201/2
f 3/132/2 88/202/2 87/201/2 72/200/2
f 69/203/2 72/200/2 74/199/2 77/204/2
f 71/134/2 69/203/2 76/205/2 82/135/2
f 76/205/2 69/203/2 77/204/2
f 88/202/2 3/132/2 89/133/2
f 130/206/2 123/20/2 124/23/2 131/207/2 133/208/2
f 13/209/2 14/21/2 123/20/2 150/210/2
f 16/211/2 125/212/2 132/213/2 18/214/2
f 135/215/10 136/216/10 130/217/10 133/218/10
f 146/219/11 147/220/11 123/221/11 130/222/11
f 132/213/2 133/208/2 131/207/2 18/214/2
f 126/223/12 129/224/12 130/217/12 136/216/12
f 133/225/13 132/226/13 134/227/13 135/228/13
f 137/102/2 136/101/2 135/229/2 134/230/2
f 139/231/2 138/232/2 140/233/2 141/234/2
f 122/235/14 142/236/14 140/237/14 138/238/14
f 141/239/15 140/240/15 142/241/15 143/242/15
f 143/243/16 142/244/16 145/245/16 144/246/16
f 144/247/17 145/248/17 149/249/17 148/250/17
f 148/251/18 149/252/18 147/253/18 146/254/18
f 150/255/14 149/256/14 145/257/14 142/236/14 122/235/14
f 122/258/2 13/259/2 150/210/2
f 123/260/14 147/261/14 149/256/14 150/255/14
f 153/262/2 4/263/2 152/264/2 155/265/2
f 2/266/2 153/262/2 155/265/2 151/267/2
f 157/268/2 154/269/2 156/270/2 155/265/2
f 151/267/2 155/265/2 156/270/2 11/271/2
f 155/265/2 152/264/2 12/272/2 157/268/2
f 158/273/19 159/274/19 161/275/19 160/276/19
f 160/277/13 161/278/13 165/279/13 164/280/13
f 164/281/14 165/282/14 163/283/14 162/284/14
f 162/285/20 163/286/20 159/287/20 158/288/20
f 160/289/21 164/290/21 162/291/21 158/292/21
f 165/293/2 161/278/2 159/287/2 163/294/2
f 166/295/22 167/296/22 169/297/22 168/298/22
f 168/299/23 169/300/23 173/301/23 172/302/23
f 172/303/24 173/304/24 171/305/24 170/306/24
f 170/307/25 171/308/25 167/309/25 166/310/25
f 168/311/21 172/312/21 170/313/21 166/314/21
f 173/315/2 169/316/2 167/317/2 171/318/2
f 174/319/26 175/320/26 177/321/26 176/322/26
f 176/323/27 177/324/27 181/325/27 180/326/27
f 180/327/28 181/328/28 179/329/28 178/330/28
f 178/331/29 179/332/29 175/333/29 174/334/29
f 176/335/21 180/336/21 178/337/21 174/338/21
f 181/339/2 177/340/2 175/341/2 179/342/2
f 182/343/30 183/344/30 185/345/30 184/346/30
f 184/347/31 185/348/31 189/349/31 188/350/31
f 188/351/32 189/352/32 187/353/32 186/354/32
f 186/355/33 187/356/33 183/357/33 182/358/33
f 184/359/21 188/360/21 186/355/21 182/361/21
f 189/362/2 185/363/2 183/364/2 187/365/2
